<svg xmlns="http://www.w3.org/2000/svg" xmlns:xlink="http://www.w3.org/1999/xlink" width="640" height="640">
  <defs>
    <path d="M212.88 55.69c0-.33.05-.67.17-.98.24-.4.55-.75.92-1.03.74-.83 1.3-1.8 1.64-2.85 2.57-6.24 4.26-11.33 4.73-12.59.59-1.39.88-2.88.87-4.39-.18-2.35-1.8-4.33-3.35-6.12-5.64 1.78-11.68 3.55-15.53 8.02-3.24 3.79-4.8 8.72-4.33 13.68.06.88.24 1.74.53 2.57.27.57.5 1.16.7 1.77.14.64.19 1.3.15 1.96 0 6.63.23 13.27.15 19.91 4.91 1.54 10.48 1.79 15.55 2.78-2.84-7.14-2.57-15.07-2.2-22.73z" id="a"/>
    <path d="M200.19 109.76v1.5c.04.5.07.78.07.83.46 4.5 2.34 8.72 5.39 12.06.35.4.82.85 1.15 1.17.04.04.27.26.68.65l1.37 1.28c6.58 6.3 10.24 9.8 10.97 10.5 7.39 6.92 14.76 13.85 22.31 20.6 1.27-1.36 11.49-12.2 12.77-13.56-7.23-7.1-14.62-14.01-22-20.95-.75-.68-4.47-4.1-11.17-10.25-1.38-1.27-2.14-1.97-2.3-2.11-.2-.21-.37-.44-.51-.69-.14-.27-.25-.55-.31-.84v-.11-.39c0-.06-.03-.38-.07-.94-.11-1.14-.17-1.77-.18-1.9-.91-10.09-2.13-20.14-3.14-30.22-.53-5.04-1.05-10.08-1.46-15.12-.25-2.56-.4-5.04-.59-7.57-.43-5.46-13.19-5.43-12.66 3.1-.07.04-.85 40.95-.41 51.06.01.26.04.89.09 1.9z" id="b"/>
    <path d="M170.25 13.17c-.08-.16-.14-.34-.18-.52a3.42 3.42 0 010-.64c-.01-.24-.01-.47 0-.71.05-.23.1-.46.17-.69v-.1c.08-.22.16-.44.24-.64.09-.21.07-.14.09-.21.03-.06.17-.36.27-.52v-.08c.13-.22.27-.42.41-.63.15-.21.32-.4.49-.59.16-.19.34-.36.54-.51.18-.16.38-.29.59-.41.18-.11.37-.2.57-.27.17-.06.35-.1.53-.12.12-.01.24-.01.36 0h.17c.15.04.3.1.44.17-.43-.25-3.88-2.3-4.31-2.56-.14-.08-.29-.15-.45-.18h-.17c-.11-.01-.23-.01-.35 0a.964.964 0 00-.24 0H168.97l-.15.08-.14.07-.1.07-.13.09-.13.09-.13.09-.1.07-.13.11-.13.11a.66.66 0 00-.11.12c-.05.04-.09.08-.13.12-.04.03-.07.06-.09.09-.01.01-.05.06-.13.15s-.12.14-.13.15c-.04.06-.08.11-.13.17-.05.07-.08.12-.08.12s-.09.13-.13.21c-.01.01-.06.1-.16.24v.08c-.07.14-.12.21-.12.23 0 .09-.09.19-.15.29-.05.11 0 .13-.09.21V7c0 .14-.11.29-.16.43s0 .08 0 .13v.13c-.01.08-.01.17 0 .25-.01.09-.01.17 0 .25v.22c-.01.06-.01.12 0 .19V10.11c-.01.03-.01.06 0 .09-.01.04-.01.08 0 .11 0 .01.03.05.07.12v.08a.8.8 0 00.13.13c.01 0 .07.05.17.12 2.59 1.58 4.03 2.46 4.32 2.63-.14-.07-.26-.17-.36-.28-.1.03-.2.05-.3.06z" id="c"/>
    <path d="M175.93 8.57c-.1 2.09-1.2 3.99-2.95 5.13-1.62.93-2.96.19-2.96-1.68.1-2.09 1.2-4 2.95-5.14 1.63-.93 2.96-.18 2.96 1.69z" id="d"/>
    <path d="M188.36 4.86c-4-2.31-6.22-3.59-6.66-3.85-.26-.14-.54-.26-.82-.34l-.25-.08c-.24-.06-.48-.1-.73-.13h-.23c-.3-.02-.6-.02-.91 0h-.27l-.47.08-.62.16-.52.18-.46.29-.45.2-.42.23-.12.07-.29.18c-.24.15-.37.23-.4.25-.14.08-.26.17-.39.27-.12.09-.25.18-.37.28l-.33.26-.37.32-.37.33-.34.32-.38.39-.39.41-.37.43-.14.17v.06l-.19.23-.38.5-.4.54-.18.27V7c-.09.13-.14.2-.16.21-.15.23-.3.48-.44.72-.03.04-.14.24-.34.59l-.15.3c-.04.06-.08.13-.12.2-.2.39-.37.77-.55 1.15 0 .16-.14.3-.2.45v.07c-.18.45-.35.88-.5 1.28l-.12.36c-.01.08-.03.15-.06.23 0 .11-.08.24-.1.36-.03.11-.14.53-.21.8-.06.27-.09.46-.14.7 0 .21-.08.43-.1.65-.03.22 0 .38 0 .58v2.75c.04.24.07.37.08.4.02.12.05.25.08.37v.24c.01.03.01.05 0 .08 0 .13.09.24.13.36.02.03.14.32.16.36v.19l.07.17.21.34.18.26c.18.21.28.33.31.36 0 .07.14.14.2.2.01.01.04.04.1.09v.08c.17.14.35.27.54.38h.08l6.67 3.85h-.07c1.34.74 2.94.86 4.38.32.7-.23 1.37-.53 2-.9 4.5-2.95 7.61-7.6 8.61-12.89.77-3.69-.28-6.64-2.45-7.8h.13zm-3.04-.45h.07-.3.23zm2.22.15h-.09.09zm-1.27-.22h0zm-13.04 16.64v0zm0-1.25V19.91c0-.03.02-.06.04-.09-.01 0-.04-.08-.04-.09zm1.21 5.6v-.11l.15.2-.15-.09zm-.5-.82v-.06-.1c.04.09.08.18.13.26-.01-.01-.06-.04-.13-.1zm-.38-.98l.08.23-.08-.23zm-.26-1.11a.43.43 0 000-.16V22.42z" id="e"/>
    <path d="M192.05 3.97h.22c.46-.04.93-.04 1.39 0h.31c.34.03.67.09 1 .18.04.01.31.09.35.1.39.13.76.29 1.13.48-.67-.39-6.01-3.46-6.68-3.85-.35-.2-.73-.36-1.12-.48-.03-.01-.31-.08-.34-.09a5.67 5.67 0 00-1-.18H187c-.43-.03-.85-.03-1.28 0h-.36l-.67.1-.84.23c-.24.07-.47.16-.72.24-.04.02-.26.11-.65.27l-.62.3-.57.32-.17.09-.4.23-.54.35-.52.37-.53.38-.43.35-.51.43-.52.46-.46.45c-.18.17-.36.35-.52.53l-.53.56c-.03.04-.2.24-.51.6l-.19.23c-.05.06-.08.09-.08.09-.09.11-.18.21-.26.32-.03.05-.21.28-.53.68l-.54.75-.45.51-.1.14-.21.31-.61.98-.47.82-.21.4c-.1.17-.15.27-.16.28-.27.52-.5 1.05-.74 1.59-.09.21-.19.4-.28.62v.07c-.39.93-.62 1.67-.69 1.85 0 .17-.09.33-.15.5-.05.17 0 .2-.1.31-.1.1-.1.32-.14.47-.15.55-.24 1-.27 1.12-.07.37-.14.69-.19.96v.06c0 .3-.1.59-.14.87-.04.28 0 .54-.08.81V24.91c0 .18 0 .36.09.54.01.05.12.46.13.51 0 .12 0 .22.09.32v.19c0 .17.1.34.17.5.06.17.14.32.2.49.01.01.03.06.08.15v.09c.07.15.11.23.11.25.09.15.18.32.29.47.01.02.09.13.23.33v.14c.12.18.26.34.41.49.09.1.19.2.29.28a.8.8 0 00.13.13l.09.09c.23.19.47.37.73.53.01 0 .05.03.11.07 4.01 2.31 6.24 3.59 6.68 3.85-.34-.2-.66-.43-.95-.69a.8.8 0 01-.13-.13 6 6 0 01-.75-.84v-.07c-.24-.33-.45-.68-.63-1.04v-.1c-.2-.42-.37-.84-.5-1.28-.15-.48-.26-.96-.33-1.45-.09-.54-.15-1.09-.16-1.64-.03-.58-.03-1.16 0-1.74v-.13c0-.62.13-1.28.25-1.91.11-.63.36-1.71.6-2.56.01-.04.09-.28.1-.31.25-.82.54-1.63.87-2.42.03-.07.26-.56.28-.62.29-.63.58-1.28.9-1.87.03-.04.21-.36.23-.4.4-.71.82-1.43 1.28-2.11.12-.05.22-.12.31-.21.51-.73 1.03-1.44 1.58-2.11.04-.05.07-.08.07-.09.56-.68 1.16-1.33 1.79-1.95.6-.6 1.25-1.16 1.92-1.69.64-.5 1.32-.96 2.02-1.37.46-.26.91-.49 1.37-.69.53-.27.98-.45 1.5-.59.51-.16 1.02-.27 1.54-.35z" id="f"/>
    <path d="M190.45 4.25c6.55-2.05 10.66 3.09 9.17 11.54-1.28 7.21-6.26 14.48-11.8 17.68-.87.52-1.79.95-2.75 1.28-6.55 2.04-10.65-3.1-9.17-11.53 1.27-7.2 6.27-14.48 11.81-17.68.86-.54 1.78-.97 2.74-1.29z" id="g"/>
    <path d="M185.8 24.35c-.11-.25-.2-.51-.26-.77-.06-.32-.09-.63-.09-.95.01-.35.04-.7.09-1.05.06-.35.14-.69.24-1.03v-.1c.1-.32.22-.64.36-.95 0-.1.09-.2.13-.29.04-.09.26-.53.4-.78v-.11c.18-.33.38-.64.61-.93.23-.31.47-.6.73-.87s.53-.52.81-.76c.28-.22.57-.42.87-.6.28-.16.57-.3.87-.4.26-.09.52-.15.79-.18.17-.01.34-.01.51 0 .08-.01.17-.01.25 0 .24.04.46.12.67.25l-1.28-.79c-.21-.11-.43-.19-.67-.24h-.24c-.18-.02-.35-.02-.53 0h-.35l-.3.09h-.23l-.23.09-.23.11-.22.12h-.06l-.14.08-.21.13-.19.14-.19.14-.14.11-.2.17-.18.17-.18.16-.19.19-.13.15-.19.2c-.11.14-.18.22-.19.23-.06.08-.12.17-.18.26l-.14.19-.21.29-.21.36v.09l-.07.12c-.11.2-.18.31-.19.33-.08.14-.13.3-.2.44-.08.14-.09.19-.13.29v.12c-.09.21-.17.43-.23.65 0 0 0 .13-.07.18v.28c0 .14-.07.27-.1.4-.01.03-.07.32-.08.36.01.03.01.06 0 .09v1.21c.01.08.01.15 0 .22V23.05l.08.18c.05.09.07.13.08.14 0 0 0 .1.09.17 0 .01.05.07.12.17l.11.11.19.18.26.19c.76.46 1.19.72 1.28.77-.2-.11-.37-.26-.53-.42-.13-.06-.26-.12-.38-.19z" id="h"/>
    <path d="M194.22 17.57a9.564 9.564 0 01-4.37 7.54c-2.41 1.4-4.39.29-4.4-2.48.15-3.1 1.78-5.93 4.37-7.63 2.43-1.39 4.4-.28 4.4 2.57z" id="i"/>
    <path d="M232.45 39.93c-23.99-13.96-37.32-21.72-39.99-23.27-.14-.08-.29-.13-.45-.17h-.22a1.93 1.93 0 00-.34 0h-.54l-.17.07h-.15l-.14.07-.1.07-.13.09-.13.09-.13.09-.1.07-.13.1-.11.12-.13.12-.13.12-.09.09-.12.14c-.07.1-.12.15-.12.16-.05.05-.1.1-.13.16a.38.38 0 00-.09.13c-.01.02-.06.08-.14.19l-.16.25v.14c-.07.14-.12.21-.12.23-.06.09-.1.19-.13.29-.04.07-.08.14-.11.21v.08c-.05.14-.11.28-.15.43v.25c0 .09 0 .17-.06.26-.07.09 0 .17 0 .25V21.67c-.01.05-.01.1 0 .15a.33.33 0 000 .14V22.77c-.01.04-.01.08 0 .12 0 0 .03.04.07.11l.08.08.13.13.18.12c23.99 13.95 37.32 21.7 39.99 23.25-.08 0-.13-.12-.19-.17.68.5 1.62.5 2.3 0a6.512 6.512 0 002.95-5.12c-.13-.58-.49-1.07-1-1.36zm-1.32-.08zm-3.38 6.74zm-.12-.17c-.04-.11-.08-.22-.11-.34 0 .11.06.24.11.36v-.02zm-.23-1.18z" id="j"/>
    <path d="M242.68 33.53h.23c.46-.04.93-.04 1.39 0h.31c.34.04.67.1 1 .18.03.01.3.09.33.11.4.12.77.28 1.13.48l-6.66-3.84c-.36-.21-.74-.37-1.13-.49-.03-.01-.3-.08-.33-.09a5.78 5.78 0 00-1.01-.18h-.3c-.43-.03-.85-.03-1.28 0h-.14c-.08.01-.16.01-.25 0-.06.01-.57.11-.64.12-.26.06-.55.13-.83.22l-.72.25-.65.27-.61.3-.58.32-.17.09-.4.23c-.32.21-.5.33-.53.35-.18.12-.36.24-.53.36-.03.03-.21.16-.52.39l-.44.34-.51.44-.51.47-.47.43c-.18.16-.35.34-.52.52-.17.18-.35.37-.53.57-.03.04-.2.24-.51.6l-.19.22-.08.09-.25.32-.54.69c-.32.44-.49.68-.53.73-.09.13-.16.25-.25.37-.01.01-.04.06-.09.15-.13.19-.21.29-.22.31-.21.32-.41.64-.62.99-.2.34-.29.54-.45.8-.08.13-.15.27-.21.4 0 .09-.12.18-.17.28-.26.52-.49 1.04-.72 1.57-.1.2-.22.42-.31.64v.09c-.25.6-.48 1.28-.69 1.84-.01.05-.12.44-.14.49 0 .1 0 .2-.09.31-.01.05-.14.45-.15.5-.1.37-.19.73-.27 1.1-.08.37-.14.63-.19.95 0 .3-.09.59-.13.88-.04.3 0 .54-.09.81a.43.43 0 000 .16c.01.05.01.09 0 .13v3.49c0 .18 0 .36.1.54.01.05.11.46.12.51 0 .11.06.23.1.33v.18s.12.33.18.5c0 0 .13.33.2.49.01.01.07.15.08.16-.01.03-.01.06 0 .09.03.09.07.16.12.24.07.16.18.32.27.47.09.15.16.23.24.35v.14c.14.16.27.33.42.48.09.1.19.2.3.28.04.05.08.09.12.13.01.01.09.08.09.09.23.2.48.37.73.53.01 0 .05.03.12.08 4 2.3 6.22 3.58 6.66 3.84-.33-.2-.65-.43-.93-.69-.02-.01-.12-.11-.13-.12-.28-.26-.53-.54-.76-.84-.23-.34-.44-.69-.62-1.05v-.11c-.2-.41-.36-.84-.49-1.28-.14-.47-.25-.96-.32-1.45-.08-.54-.13-1.09-.16-1.64v-1.74c.01-.04.01-.08 0-.13 0-.61.13-1.28.25-1.91.11-.62.37-1.7.61-2.56 0-.1.07-.2.09-.31.26-.8.54-1.62.87-2.42.04-.06.28-.58.31-.64.28-.63.57-1.28.89-1.84l.21-.4c.4-.72.82-1.42 1.29-2.1 0-.02.08-.13.08-.14.5-.75 1.03-1.45 1.58-2.12.05-.06.07-.09.08-.1.57-.68 1.16-1.28 1.79-1.95.61-.6 1.26-1.17 1.94-1.69.64-.5 1.32-.96 2.02-1.37.46-.26.91-.49 1.37-.69.49-.22.95-.4 1.4-.54.5-.15 1.02-.27 1.54-.35z" id="k"/>
    <path d="M241.14 33.88c6.57-2.06 10.67 3.09 9.19 11.53-1.29 7.23-6.28 14.49-11.83 17.7-.87.5-1.78.91-2.73 1.21-6.55 2.04-10.66-3.1-9.17-11.53 1.28-7.24 6.26-14.49 11.8-17.69.86-.51 1.78-.92 2.74-1.22z" id="l"/>
    <path d="M247.99 40.91c.34-.03.68-.03 1.02 0h.23c.24.03.48.07.71.13.03.01.24.07.26.08.28.09.55.2.81.34-.67-.38-6-3.45-6.66-3.84-.27-.15-.54-.27-.83-.36-.02 0-.21-.06-.24-.06-.24-.07-.48-.11-.73-.13h-.22c-.3-.03-.61-.03-.92 0h-.26c-.16.01-.32.04-.48.08-.21.04-.42.1-.62.16l-.51.18-.49.21-.46.22-.42.21-.12.08-.29.17-.4.25-.38.27-.39.28-.33.26-.37.32-.37.35-.34.3-.37.39-.38.41c-.23.26-.36.41-.39.43-.04.06-.09.11-.13.17h-.06l-.19.23-.39.5c-.23.32-.35.5-.38.54-.06.09-.13.18-.18.27 0 .01-.03.04-.08.11-.09.13-.14.21-.15.22-.15.24-.31.48-.45.72-.02.04-.13.23-.33.59l-.16.29c-.06.13-.1.19-.11.21-.19.37-.36.75-.54 1.14-.06.15-.15.31-.22.47-.18.45-.36.9-.5 1.28-.01.04-.1.33-.11.36-.02.08-.04.15-.07.22 0 .13-.07.24-.1.36-.02.11-.14.54-.2.81-.07.27-.09.46-.14.69 0 .22-.08.43-.11.64-.02.2 0 .4 0 .59v2.2c-.01.14-.01.28 0 .43V55.1c.05.23.07.36.08.38 0 .13 0 .26.09.39.01.08.01.16 0 .24v.08s.09.24.13.36c.01.03.14.32.15.36.02.04.04.07.07.11v.08c.02.06.05.11.09.16 0 .12.12.23.2.35.05.09.1.17.17.24v.07c.09.12.19.24.29.36.07.07.14.14.22.2l.09.09h.08c.15.15.33.28.52.39h.09c4 2.3 6.22 3.58 6.66 3.84-.24-.15-.47-.32-.69-.51l-.09-.09c-.2-.19-.38-.39-.55-.61-.17-.24-.32-.5-.46-.76-.14-.3-.26-.61-.36-.93-.11-.34-.19-.69-.24-1.05-.06-.4-.09-.8-.1-1.2v-1.28-.09c0-.45.08-.91.17-1.4.11-.62.26-1.24.44-1.84l.08-.24c.17-.6.38-1.19.63-1.76.02-.05.2-.43.23-.48.2-.45.41-.91.64-1.34.05-.1.1-.19.16-.28.28-.53.59-1.04.93-1.54.04-.06.07-.1.07-.11.36-.53.74-1.05 1.16-1.55v-.06c.42-.5.85-.99 1.28-1.42.44-.46.91-.89 1.41-1.28.47-.37.97-.7 1.48-1 .64-.37 1.31-.67 2-.9.37-.11.74-.19 1.12-.24.06.01.24.06.3.07z" id="m"/>
    <path d="M246.71 41.18c4.78-1.48 7.77 2.27 6.69 8.4-1 5.29-4.11 9.94-8.62 12.89-.63.37-1.3.67-1.99.89-4.78 1.49-7.78-2.25-6.69-8.39 1-5.29 4.11-9.94 8.61-12.89.64-.37 1.31-.67 2-.9z" id="n"/>
    <path d="M242.23 56.94c-.11-.25-.2-.51-.25-.78-.05-.31-.08-.63-.09-.95.01-.35.04-.7.09-1.05 0-.33.15-.68.25-1.02v-.09c.1-.33.22-.65.36-.96.04-.1.09-.2.14-.3.11-.25.24-.52.38-.77v-.11c.19-.32.4-.64.62-.94.22-.3.47-.59.73-.87a7.738 7.738 0 011.68-1.37c.28-.16.57-.29.87-.4.25-.08.51-.14.78-.16.17-.02.34-.02.51 0h.26c.23.04.46.13.66.25-.12-.08-1.15-.7-1.28-.78-.21-.11-.44-.2-.68-.24h-.24c-.17-.02-.34-.02-.51 0h-.37l-.3.07h-.23l-.23.11-.22.1-.22.12h-.06l-.14.08-.21.12-.19.14-.18.14-.15.12-.18.16-.18.16-.19.18-.18.19-.13.13-.18.2-.19.23-.19.25-.13.18-.21.29c-.13.22-.2.34-.21.36a.17.17 0 000 .1c-.01.01-.03.04-.07.1l-.19.34c-.12.26-.18.4-.19.43-.05.1-.1.21-.14.31v.12c-.09.21-.17.43-.23.65 0 0 0 .12-.07.18v.28c0 .13-.08.27-.1.4-.01.03-.07.31-.08.34.01.04.01.07 0 .11v1.21c.01.08.01.15 0 .22V54.93c.01.05.01.1 0 .14v.37c.02.07.04.13.07.18.01.07.03.13.06.18.01.05.04.1.06.14.03.06.07.12.11.17 0 .01.04.07.11.18l.1.12c.06.06.12.12.18.17.02.02.11.08.27.18.77.47 1.2.72 1.28.77-.19-.12-.37-.26-.52-.43-.16-.04-.31-.09-.46-.16z" id="o"/>
    <path d="M250.65 50.18a9.711 9.711 0 01-4.37 7.56c-2.42 1.39-4.4.27-4.41-2.56a9.642 9.642 0 014.37-7.56c2.42-1.4 4.39-.27 4.41 2.56z" id="p"/>
    <path d="M248.24 58.56c-.08-.17-.14-.35-.17-.53-.02-.21-.02-.42 0-.63a4.09 4.09 0 010-.7c0-.22.09-.46.15-.69.07-.21.15-.42.24-.64.01-.02.09-.18.1-.19.07-.18.16-.36.25-.53v-.08c.13-.22.27-.43.43-.62.15-.21.31-.41.48-.59.17-.18.35-.36.54-.52.19-.15.38-.29.59-.41.19-.11.39-.2.59-.27.17-.05.35-.09.53-.11.11-.01.23-.01.34 0h.17c.16.03.31.08.45.17-.43-.27-3.89-2.37-4.32-2.63-.14-.08-.29-.14-.45-.17h.01-.96l-.16.08h-.15l-.15.08h-.09l-.14.07-.13.09-.13.1-.1.08-.13.12-.11.1-.13.13-.13.13-.07.09-.13.14-.26.33-.09.11-.14.21c-.09.15-.14.23-.15.24a.11.11 0 000 .08c-.02.02-.12.2-.13.22 0 .1-.09.2-.13.29-.04.09 0 .14-.1.21v.07l-.16.45v1.22c.01.06.01.12 0 .18v1.42l.07.12.07.11.08.08c.08.07.12.11.13.12.05.04.11.09.18.12 2.59 1.54 4.03 2.4 4.32 2.57-.13-.08-.25-.18-.35-.3-.18.06-.37.08-.56.08z" id="q"/>
    <path d="M194.7 25.18c-.55.87-.9 1.86-1.01 2.89a35.47 35.47 0 00-.46 6.98c-.02 1.05.22 2.1.7 3.04.57.8 1.32 1.45 2.18 1.9 1.42.9 2.87 1.72 4.37 2.47.91.56 1.95.88 3.01.94 1.47-.19 2.83-.88 3.85-1.96 1.97-1.76 3.71-3.77 5.71-5.51 2.3-1.76 5-2.92 7.86-3.38-.08-2.14-2.45-4.4-4.21-5.63-1.81-1.15-3.8-2.01-5.88-2.56-2.15-.67-4.37-1.73-6.52-2.27-2.15-.54-4.97.41-6.91 1.21a6.051 6.051 0 00-2.69 1.88z" id="r"/>
    <path d="M381.55 158.68c.13-.3.31-.58.53-.83.38-.28.82-.48 1.28-.6.97-.5 1.85-1.18 2.56-2.01 4.69-4.81 8.25-8.86 9.16-9.84 1.07-1.06 1.91-2.33 2.47-3.72.75-2.26 0-4.7-.76-6.95-5.9-.49-12.14-1.16-17.42 1.5a18.476 18.476 0 00-9.21 11.01c-.26.83-.41 1.69-.45 2.56.03.64.03 1.27 0 1.9-.12.65-.33 1.28-.61 1.87-2.57 6.11-4.85 12.37-7.44 18.48 3.95 3.29 7.9 4.94 12.2 7.79.1-7.69 4.5-14.2 7.69-21.16z" id="s"/>
    <path d="M344.34 117.64a3.16 3.16 0 01-.17-.52 3.42 3.42 0 010-.64c-.02-.24-.02-.47 0-.71.04-.23.1-.47.17-.69.07-.22.15-.43.24-.64 0-.08 0-.14.09-.21.08-.18.17-.35.27-.52.13-.22.26-.44.41-.64.15-.21.32-.4.49-.59.17-.19.35-.36.55-.51.18-.16.38-.3.59-.41.19-.12.38-.21.59-.29.17-.06.34-.1.52-.11.12-.02.23-.02.35 0h.17c.16.02.32.08.46.16-.43-.25-3.89-2.3-4.32-2.56-.14-.08-.29-.14-.45-.16h-.02c-.12-.02-.24-.02-.35 0h-.69l-.16.07-.14.08h-.09l-.14.09-.13.09-.12.09-.11.09-.12.1-.13.12-.13.11-.12.13-.07.09-.13.14-.13.15-.13.17-.09.13c-.08.12-.13.19-.14.2-.05.08-.1.16-.14.25-.05.07-.09.15-.13.23-.01.02-.05.12-.14.29l-.09.21v.07c-.06.14-.11.3-.16.44v.26c-.01.09-.01.18 0 .26-.01.08-.01.16 0 .24V113.11c-.01.06-.01.12 0 .17v.85c-.01.04-.01.08 0 .12v.24c-.01.04-.01.08 0 .11V114.81c.02.04.05.08.09.12a.11.11 0 000 .08l.12.12.18.13c2.59 1.54 4.03 2.39 4.32 2.56a1.35 1.35 0 01-.35-.28c-.16.06-.34.1-.52.1z" id="t"/>
    <path d="M350.02 113.05a6.514 6.514 0 01-2.95 5.13c-1.63.95-2.96.19-2.97-1.68.1-2.09 1.19-4 2.94-5.14 1.64-.95 2.98-.19 2.98 1.69z" id="u"/>
    <path d="M362.44 109.39c-3.99-2.31-6.21-3.59-6.66-3.84a3.15 3.15 0 00-.82-.36h-.25c-.24-.07-.48-.12-.72-.14h-.23c-.31-.03-.62-.03-.93 0h-.25c-.29.05-.46.08-.49.09-.21.04-.41.09-.61.16l-.53.18-.47.21-.45.21-.42.22-.12.08-.29.17-.4.25-.39.27-.38.28-.32.26-.37.32-.37.33-.34.32-.37.39-.38.41-.37.43-.15.17v.06c-.11.15-.17.23-.19.25-.13.15-.27.32-.38.48-.12.17-.27.36-.4.56-.13.19-.11.16-.18.25-.01.01-.07.11-.08.12 0 .07-.1.14-.14.21-.04.08-.3.48-.45.72-.14.25-.23.4-.33.6-.1.21-.11.18-.16.29-.02.02-.11.18-.12.2-.19.39-.36.77-.54 1.15-.02.05-.18.42-.2.47-.19.41-.36.84-.5 1.28-.01.03-.11.33-.12.37v.22c-.01.02-.04.14-.11.36-.12.48-.18.75-.2.8 0 .23-.1.46-.14.71 0 .22 0 .42-.09.64-.09.22 0 .38-.06.57-.01.05-.01.09 0 .13v.09c-.01.11-.01.22 0 .34v2.34c.01.13.03.27.06.4 0 .13.07.25.09.37.01.02.03.1.08.24v.08a11.676 11.676 0 00.27.73v.12c.05.1.07.15.08.16.06.12.12.23.2.35.06.09.12.17.18.25 0 0 .19.25.3.35l.21.21.11.1c.16.14.34.27.52.38h.09l6.66 3.85h-.06c1.34.74 2.94.86 4.38.32.7-.23 1.37-.52 2-.89a19.86 19.86 0 008.64-12.54c.74-4.01-.31-7-2.46-8.16.01 0 .06.03.12.06zm-3.03-.51h.1-.28.18zm2.21.15h-.08.08zm-1.16-.22zm-13.16 16.63v0zm0-1.15v-.09.09zm1.28 5.51l-.08-.11.16.21-.08-.1zm-.5-.82v-.09c0 .09.09.18.14.26a.27.27 0 01-.1-.17h-.04zm-.4-.97v-.07c.02.08.05.15.08.22-.01-.02-.04-.07-.08-.15zm-.25-1.12a.43.43 0 010-.16V126.89z" id="v"/>
    <path d="M366.06 108.44h.23c.46-.04.93-.04 1.4 0h.3c.34.04.67.1 1 .18.04.01.3.09.34.1.39.12.77.29 1.12.49-.66-.38-5.99-3.46-6.66-3.84-.36-.21-.73-.37-1.13-.49-.03-.01-.3-.08-.33-.09a5.67 5.67 0 00-1-.18h-.32c-.43-.03-.86-.03-1.28 0h-.36c-.4.07-.62.11-.67.12-.28.05-.57.12-.84.21l-.72.25-.65.27c-.21.08-.42.18-.62.29l-.59.31-.15.09-.4.23-.54.36-.54.36-.51.39-.45.36-.51.44-.51.46-.46.43c-.31.32-.48.49-.52.53-.17.19-.35.37-.52.56-.17.2-.35.4-.53.61-.01.01-.07.09-.18.23l-.08.09c-.16.19-.24.3-.26.32-.18.21-.36.45-.53.68-.03.05-.21.29-.53.74l-.26.37-.09.14c-.12.19-.19.29-.21.31-.21.32-.42.65-.61.99-.19.33-.31.55-.46.82-.02.02-.09.15-.22.39-.09.17-.14.27-.15.28-.27.52-.52 1.06-.75 1.59-.09.21-.2.41-.29.62-.09.2 0 0 0 .08-.24.61-.48 1.28-.68 1.84-.02.05-.14.45-.15.5 0 .1-.07.21-.09.31-.03.1-.11.32-.15.48-.1.36-.19.74-.28 1.11-.09.37-.13.64-.18.96v.06c0 .3-.1.59-.14.89-.04.29 0 .53-.09.79.01.06.01.11 0 .17V129.42c0 .18 0 .36.11.54.1.17.07.34.12.51.05.16 0 .22.09.33v.12c.02.05.16.45.18.5 0 .16.13.32.21.48.01.02.07.14.07.16v.1c.01.01.05.09.12.23l.27.47.24.34v.07c.13.18.26.34.41.49.09.1.19.2.3.28 0 .01.04.05.11.13.06.05.1.08.11.09.22.19.47.37.73.53 0 0 .04.03.11.07 4 2.31 6.22 3.59 6.66 3.85-.33-.2-.65-.43-.93-.69-.01-.02-.12-.11-.13-.12-.27-.26-.53-.54-.76-.85v-.06a7.83 7.83 0 01-.62-1.05v-.09c-.19-.42-.35-.85-.49-1.28-.14-.48-.24-.96-.32-1.45-.08-.54-.13-1.09-.14-1.64-.04-.58-.04-1.16 0-1.74a.244.244 0 010-.12c.04-.64.13-1.28.24-1.92.15-.86.35-1.72.6-2.56.04-.1.07-.21.09-.31.26-.82.55-1.64.89-2.43.07-.21.19-.41.28-.62.28-.63.58-1.28.9-1.87.08-.13.15-.26.21-.4.41-.72.82-1.42 1.29-2.1.01-.01.09-.14.1-.15.49-.73 1.02-1.44 1.57-2.12l.08-.09c.56-.68 1.15-1.33 1.78-1.94.61-.6 1.25-1.17 1.92-1.7.65-.51 1.33-.97 2.04-1.38.45-.26.91-.49 1.36-.69.48-.22.97-.4 1.47-.55.5-.16 1.01-.27 1.53-.35z" id="w"/>
    <path d="M364.53 108.79c6.55-2.05 10.66 3.09 9.18 11.53-1.28 7.23-6.27 14.48-11.82 17.68-.86.53-1.78.96-2.74 1.28-6.55 2.04-10.65-3.1-9.16-11.53 1.27-7.3 6.27-14.54 11.8-17.75.87-.5 1.79-.91 2.74-1.21z" id="x"/>
    <path d="M359.88 128.79c-.11-.25-.2-.51-.25-.78-.07-.31-.1-.63-.09-.95-.01-.35.02-.7.09-1.05.05-.35.13-.69.24-1.03v-.1c.1-.32.22-.64.35-.95.01-.03.12-.26.14-.29.12-.27.25-.53.39-.78v-.11c.2-.32.4-.64.62-.93.22-.31.46-.6.72-.87.25-.27.52-.52.8-.76.28-.22.57-.43.87-.61.28-.16.58-.29.88-.4.25-.09.51-.15.78-.18.17-.01.34-.01.51 0h.26c.23.05.45.13.66.24-.13-.07-1.21-.69-1.34-.77-.2-.12-.42-.21-.66-.25h-.07a4.51 4.51 0 00-.52 0h-.35c-.11.01-.21.04-.31.07h-.22l-.24.11-.22.1-.22.12h-.06a.42.42 0 00-.14.09c-.02 0-.09.05-.21.12l-.19.13-.19.14-.14.12c-.12.09-.18.14-.2.15-.06.05-.12.11-.18.17-.01.02-.17.16-.19.18-.06.05-.12.11-.18.18-.07.08-.12.13-.13.14 0 0-.11.14-.17.22-.02.01-.08.09-.2.23l-.19.24-.14.19-.19.3c-.14.21-.22.33-.23.36v.2c-.12.2-.18.31-.2.33-.07.14-.14.3-.2.44-.01.02-.06.12-.14.31v.11c-.09.21-.17.42-.24.64-.08.22 0 .13 0 .19v.09s0 .13-.07.18l-.09.4c-.01.04-.07.32-.08.36v.09c.01.06.01.12 0 .18v2.18c.01.01.03.07.07.18l.08.16c.02.05.04.09.06.14.01.02.09.15.1.17.04.06.08.12.13.17.03.04.06.08.09.13.06.06.12.12.19.17.02.02.1.08.26.2.77.46 1.19.71 1.28.77a2.33 2.33 0 01-.51-.43c-.21-.03-.42-.08-.62-.15z" id="y"/>
    <path d="M368.3 122.04a9.538 9.538 0 01-4.37 7.54c-2.41 1.4-4.38.29-4.39-2.48.14-3.1 1.76-5.94 4.37-7.63 2.42-1.39 4.39-.28 4.39 2.57z" id="z"/>
    <path d="M406.54 144.4c-23.99-13.94-37.32-21.69-39.98-23.23-.14-.09-.29-.15-.45-.17h-.17c-.12-.01-.24-.01-.36 0h-.75l-.16.08-.14.07-.1.07-.13.09-.13.09-.12.09-.11.07-.12.1-.13.12-.12.12c-.04.04-.09.08-.13.12l-.07.09-.13.14c-.08.1-.12.15-.13.16-.04.06-.08.11-.13.16a.38.38 0 01-.09.13s-.09.13-.12.21c-.01.01-.07.1-.16.24-.08.14-.12.22-.13.23 0 .09-.09.19-.14.3-.05.1-.06.12-.09.2v.08c0 .14-.11.29-.16.43v.26c-.03.08-.05.17-.07.26V126.21c.01.05.01.1 0 .14V127.15l.08.11.08.12.06.09a.8.8 0 00.13.13c.01.01.06.05.16.13 24 13.94 37.33 21.69 40 23.24a.684.684 0 01-.21-.17c.68.52 1.62.52 2.31 0a6.46 6.46 0 002.94-5.12c-.15-.56-.52-1.02-1.03-1.28zm-1.32-.08h-.18.18zm-3.42 6.74zm-.12-.17c-.05-.11-.08-.23-.12-.34.03.12.07.24.12.36v-.02zm-.18-1.18z" id="A"/>
    <path d="M416.75 138.04h.24c.47-.04.93-.04 1.4 0 .1-.01.2-.01.29 0 .35.03.68.08 1.02.17l.33.1c.39.12.77.28 1.13.49-.67-.39-6-3.46-6.67-3.85-.36-.19-.73-.35-1.12-.47-.04-.01-.32-.09-.35-.1-.33-.08-.66-.14-1-.18h-.31c-.42-.04-.85-.04-1.28 0h-.38c-.22.02-.43.05-.64.1-.06.01-.34.09-.84.23-.24 0-.47.15-.71.24l-.66.27-.61.3-.59.3-.16.09-.39.23-.54.36-.54.36-.51.4-.45.36-.51.43-.52.47-.44.43-.52.53c-.31.33-.49.52-.52.56-.18.19-.35.4-.53.6-.18.21-.11.16-.18.22 0 .01-.03.04-.07.1l-.27.31-.53.69-.54.75-.24.35-.1.16-.21.31c-.37.59-.57.92-.61.98-.16.26-.31.54-.45.81-.08.13-.15.26-.22.4-.01.02-.15.25-.16.28-.27.51-.49 1.04-.73 1.56-.09.22-.21.42-.3.64v.09c-.38.92-.62 1.66-.69 1.85 0 .16-.09.33-.14.48-.05.16-.07.21-.11.31-.03.1-.1.33-.14.5-.1.37-.19.74-.28 1.1-.09.36-.13.63-.18.95 0 .31-.1.6-.14.89-.04.28-.06.53-.08.8v2.64c0 .21 0 .39.07.58.06.19 0 .29 0 .45v.23c0 .18 0 .36.1.54.1.18.08.34.12.52.04.18.06.22.1.32v.18c0 .18.11.35.17.5.05.16.14.33.2.49.06.15.06.11.09.16v.11l.12.22c.09.16.18.33.28.48.07.12.15.23.24.34v.07c.13.17.26.34.41.49.02.02.12.11.3.28l.12.13c.07.05.1.08.11.09.23.2.47.38.73.54 0 0 .04.02.11.06l6.67 3.85c-.34-.2-.66-.43-.94-.7-.01-.01-.13-.1-.14-.11a6.63 6.63 0 01-1.37-1.9v-.09c-.2-.41-.36-.84-.49-1.28-.14-.48-.25-.96-.33-1.45-.09-.54-.15-1.09-.16-1.64v-1.74-.13c0-.61.13-1.28.25-1.91.15-.86.36-1.72.61-2.56.02-.11.05-.22.09-.32.26-.81.54-1.62.87-2.42.09-.22.21-.43.31-.64.27-.64.56-1.25.89-1.85.13-.24.2-.37.21-.4.4-.71.82-1.42 1.28-2.1.01-.01.1-.12.11-.14.49-.74 1.02-1.45 1.57-2.11.05-.06.07-.09.08-.09a23.674 23.674 0 013.7-3.64c.65-.51 1.33-.97 2.04-1.38.45-.26.9-.49 1.37-.7.43-.22.88-.41 1.33-.57.5-.16 1.01-.27 1.53-.35z" id="B"/>
    <path d="M415.22 138.28c6.56-2.06 10.68 3.09 9.18 11.54-1.28 7.21-6.27 14.48-11.82 17.68-.85.53-1.77.96-2.72 1.28-6.55 2.05-10.67-3.1-9.18-11.53 1.26-7.23 6.27-14.48 11.8-17.68.87-.53 1.79-.96 2.74-1.29z" id="C"/>
    <path d="M422.08 145.38c.34-.02.67-.02 1.01 0h.22c.25.03.49.07.73.13.02.01.22.07.24.08.29.08.56.2.82.34-.66-.38-5.99-3.46-6.66-3.84-.26-.15-.54-.27-.82-.36h-.24a4.66 4.66 0 00-.73-.13h-.23c-.31-.02-.61-.02-.91 0h-.26l-.49.08-.61.17-.53.18-.48.2-.45.22-.43.23h-.11l-.3.17-.39.25-.39.27-.38.28-.32.27-.37.31c-.23.21-.36.32-.39.35-.1.1-.22.2-.32.32-.23.23-.36.35-.38.38-.13.13-.25.27-.37.41-.04.04-.35.39-.39.44-.05.05-.09.1-.13.16h-.06l-.19.23c-.23.3-.36.47-.39.5-.13.18-.27.36-.39.55-.06.09-.12.18-.18.26v.12c-.1.13-.15.2-.16.21-.15.25-.31.49-.45.73-.03.06-.3.52-.33.58-.05.1-.1.2-.17.3-.03.07-.07.14-.11.21-.19.37-.36.75-.53 1.13-.06.17-.15.31-.21.47-.07.17 0 0 0 0-.19.44-.36.89-.5 1.35 0 .12-.08.24-.12.36 0 .01-.03.09-.06.22l-.12.36c-.11.49-.18.76-.19.82 0 .21-.1.44-.14.67 0 .22-.08.44-.1.65-.03.2 0 .39 0 .58v.22c-.01.11-.01.22 0 .34V159.36c0 .13 0 .27.07.4.08.13 0 .24.09.37v.32l.13.36c.02.04.14.32.15.36v.13l.08.16.21.35.17.26c.04.03.28.31.31.34.07.08.14.14.21.21 0 0 .04.03.1.09.04.04.06.07.06.07.17.15.35.27.54.39h.08c4 2.3 6.23 3.59 6.67 3.84-.24-.14-.48-.31-.69-.5l-.09-.09c-.2-.18-.38-.39-.55-.61-.17-.25-.33-.5-.46-.77v-.07c-.14-.3-.26-.6-.36-.92-.1-.34-.18-.69-.23-1.05-.05-.39-.09-.79-.1-1.19-.03-.43-.03-.85 0-1.28v-.1c0-.45.1-.91.18-1.39.12-.62.27-1.24.45-1.86.02-.07.05-.15.06-.23.19-.59.4-1.18.64-1.76.07-.16.16-.31.22-.48.2-.45.41-.9.65-1.28.02-.03.14-.27.16-.29.29-.53.6-1.04.93-1.54.01-.01.07-.09.08-.11.36-.53.74-1.05 1.14-1.55h.06c.41-.5.85-.97 1.28-1.42.44-.45.91-.88 1.4-1.28.48-.36.97-.7 1.49-1 .63-.37 1.3-.67 2-.88.36-.12.73-.21 1.11-.26.05.06.18.23.22.28z" id="D"/>
    <path d="M420.8 145.66c4.76-1.49 7.76 2.26 6.69 8.38a19.861 19.861 0 01-8.63 12.9c-.63.37-1.3.67-2 .89-4.76 1.49-7.76-2.25-6.68-8.38.99-5.29 4.11-9.95 8.62-12.9.63-.37 1.3-.67 2-.89z" id="E"/>
    <path d="M416.3 161.45c-.12-.25-.2-.51-.26-.78-.05-.31-.08-.63-.09-.95 0-.35.03-.69.09-1.04.06-.34.14-.69.25-1.02v-.09c.1-.32.22-.64.34-.95.06-.1.1-.2.14-.31.13-.25.26-.51.4-.77v-.11c.19-.32.39-.64.6-.94.23-.3.47-.59.72-.87.25-.27.52-.53.81-.75.27-.23.57-.43.87-.62.28-.16.57-.29.87-.4.25-.08.51-.14.77-.16.17-.02.35-.02.53 0 .08-.02.16-.02.24 0 .23.04.46.12.67.24-.13-.08-1.16-.7-1.29-.78-.2-.12-.43-.2-.66-.24h-.14c-.18-.02-.35-.02-.53 0h-.36l-.29.07h-.23l-.23.1-.23.11-.21.11h-.06c-.05.02-.1.06-.14.09-.02.01-.09.05-.21.13l-.19.13-.19.14-.14.12-.18.15-.2.17-.18.16-.19.19-.11.13-.2.21-.17.23-.2.25-.12.18c-.13.18-.2.28-.21.3-.08.13-.15.24-.22.37v.09c0 .01-.02.04-.06.1-.12.21-.18.33-.19.35-.08.14-.13.28-.21.43-.01.02-.06.12-.14.3v.11c-.09.22-.17.44-.24.66-.08.22 0 .11 0 .18v.1c0 .06 0 .13-.07.18-.06.05-.06.27-.09.4 0 .03-.07.32-.07.35v.56c-.01.09-.01.18 0 .26-.01.09-.01.18 0 .26v.67c-.01.06-.01.13 0 .19v.52s0 .13.06.18c.01.02.03.08.08.18.04.08.07.12.07.13 0 0 0 .12.09.18.01.01.05.07.13.17l.1.11.2.18.25.19c.77.47 1.2.72 1.28.77-.19-.11-.37-.25-.52-.42-.19-.04-.37-.1-.54-.18z" id="F"/>
    <path d="M424.72 154.65a9.633 9.633 0 01-4.37 7.57c-2.41 1.38-4.38.27-4.4-2.56a9.694 9.694 0 014.37-7.58c2.41-1.38 4.4-.26 4.4 2.57z" id="G"/>
    <path d="M422.32 163.03c-.07-.17-.13-.35-.18-.53-.02-.21-.02-.42 0-.63a4.09 4.09 0 010-.7c.05-.23.1-.47.17-.69.08-.22.15-.44.24-.66l.09-.19c.09-.18.17-.36.27-.52v-.08c.13-.22.27-.42.41-.63.16-.2.32-.4.5-.59.17-.18.35-.34.54-.5.19-.15.38-.29.59-.41.18-.11.38-.2.58-.27.17-.05.35-.08.53-.11h.52c.15.03.3.09.45.16-.44-.25-3.89-2.3-4.32-2.56-.08-.13-.17-.25-.27-.36h-.17a1.93 1.93 0 00-.34 0c-.09-.01-.17-.01-.25 0H420.99l-.14.08h-.1l-.13.08-.13.09-.13.1-.1.08-.13.1-.11.11c-.08.07-.12.11-.13.12a.8.8 0 00-.13.13l-.09.07-.13.16-.13.15-.12.17-.11.13-.12.19-.16.24v.08c-.08.14-.12.21-.13.23 0 .09-.09.19-.14.29 0 .02-.03.08-.09.2v.09c-.06.14-.11.28-.15.43-.01.04-.01.08 0 .12v.19c-.03.09-.05.18-.06.27V158.11c-.01.06-.01.13 0 .19V159.11c-.01.04-.01.08 0 .12v.58c-.01.03-.01.06 0 .09.01.04.03.08.06.12l.08.11.06.08a.8.8 0 00.13.13c.01 0 .06.05.16.12 2.6 1.54 4.04 2.4 4.32 2.57-.13-.08-.26-.18-.36-.3-.13.12-.29.22-.46.3z" id="H"/>
    <path d="M370.98 129.05c-.55.87-.9 1.86-1.01 2.89-.39 2.3-.54 4.64-.45 6.97-.04 1.07.2 2.12.69 3.06.57.79 1.32 1.44 2.18 1.9 1.42.89 2.88 1.71 4.37 2.47.91.55 1.95.87 3.01.93a6.34 6.34 0 003.91-1.96c1.97-1.76 3.71-3.77 5.7-5.51 2.3-1.76 5.01-2.92 7.87-3.37-.08-2.16-2.45-4.4-4.21-5.64-1.81-1.15-3.8-2.02-5.88-2.56-2.15-.68-4.38-1.75-6.52-2.27-2.14-.53-5.02.41-6.97 1.21a6.132 6.132 0 00-2.69 1.88z" id="I"/>
    <path d="M236.26 124.14c2.38-.31 24.04 17 24.04 17s10.03 11.33 1.06 18.72c-8.97 7.4-38.81-12.5-38.81-12.5 2.74-4.65 1.07-16.55 13.71-23.22z" id="J"/>
    <path d="M20.1 516.66l-.01 2.75 136.8 78.98 407.93-237.06.02-2.75L156.9 595.64 20.1 516.66z" id="K"/>
    <path d="M156.9 595.64L20.1 516.66l407.94-237.07 136.8 78.99L156.9 595.64z" id="L"/>
    <path d="M184.89 363.88c0 19.18-21.58 34.72-48.19 34.72-26.62 0-48.2-15.54-48.2-34.72s21.58-34.72 48.2-34.72c26.61 0 48.19 15.54 48.19 34.72z" id="M"/>
    <path d="M589.73 503.36c-7.25 3.25-34.02-27.95-31.79-30.33 10.64-11.4 27.88-19.6 42.43-19.39 17.64.23 24.61 12.68 15.55 27.8-5.39 9.08-15.37 17.03-26.19 21.92z" id="N"/>
    <path d="M366.53 632.52c-4.56 3.84-49.39-18.36-47.16-20.76 10.63-11.38 27.88-19.58 42.42-19.39 17.59.23 24.57 12.69 15.56 27.81-2.9 4.68-6.55 8.85-10.82 12.34z" id="O"/>
    <path d="M232.45 355.06c-.51 11.04 9.44 84.09 9.44 84.09a13.28 13.28 0 0013.79 1.2s5.52-54.55 4.59-65.49c-.36-5.18-1.25-10.3-2.67-15.3.41-3.16 3.63-28.47 4.03-31.63-8.98 1.69-21-1.48-29.72-3.31-.87 14.81.66 28.07.54 30.44z" id="P"/>
    <path d="M299.04 454.79c-4.88 5.28-12.37 11.37-17.85 16.01-3.01 2.56-7.75 6.01-6.7 10.68 1.89 8.34 15.25 5.27 20.24 2.57 4.98-2.71 8.96-7.18 13.67-10.34 3.34-2.25 6.67-3.48 7.04-7.82.24-2.65-2.83-12.39-3.7-12.29-4.84 4.25-12.34.81-12.7 1.19z" id="Q"/>
    <path d="M308.21 471.8c-4.78 3.21-8.97 7.75-13.89 10.5-4.62 2.57-16.23 5.33-19.75-.55 2.09 8.04 15.22 5.01 20.16 2.28 4.93-2.73 8.96-7.17 13.67-10.34 3.34-2.24 6.67-3.47 7.04-7.81.03-.6-.01-1.19-.12-1.77-.5 4.18-3.85 5.43-7.11 7.69z" id="R"/>
    <path d="M241.63 438.03c-5.44 5.03-11.16 9.73-17.14 14.1-3.23 2.3-8.22 5.34-7.57 10.08 1.18 8.48 14.76 6.52 19.95 4.19 5.19-2.33 9.54-6.41 14.48-9.16 3.52-1.97 6.95-2.92 7.69-7.21.45-2.62-2.44-11.4-3.32-11.33-5.12 3.84-13.7-1.01-14.09-.67z" id="S"/>
    <path d="M251.26 455.91c-5.02 2.8-9.53 6.97-14.72 9.3-4.79 2.17-16.66 3.97-19.62-2.18 1.41 8.19 14.75 6.25 19.89 3.95 5.14-2.31 9.54-6.41 14.48-9.16 3.52-1.98 6.94-2.91 7.69-7.22.05-.58.04-1.17-.03-1.75-.85 4.11-4.23 5.12-7.69 7.06z" id="T"/>
    <path d="M305.28 269.46c-6.89-1.93-62.06-17.3-68.96-19.22 0 0-2.56 43.7-4.41 74.39 8.72 1.83 20.74 5 29.72 3.31.29-2.33 1.77-13.94 4.42-34.85 1.2-.07 1.86-.11 2-.12 0 0 2.06 16.93 4.41 34.6 10 1.93 21.53 2.74 31.32-1.28.43-17.61 1.54-49.41 1.5-56.83z" id="U"/>
    <path d="M303.76 327.25v-.96c-9.79 4.02-21.32 3.21-31.33 1.28 2.02 15.28 4.25 31.12 5.55 36.96 2.3 10.41 3.29 20.13 7.62 36.91 4.33 16.77 13.7 53.95 13.7 53.95 3.99 2.38 9.01 2.19 12.81-.47 0 0 .22-46.94-2.25-61.72-2.47-14.79-5.97-27.31-5.97-27.31-.03-7.73-.55-21.26-.13-38.64z" id="V"/>
    <path d="M287.54 142.85s7.56 6.27 9.65 8c0 0-11.38 15.03-17.94 18.03-6.56 3-27.31-4.87-27.67-15.12-.36-10.25 3.55-18.76 6.74-19.22 3.19-.46 29.7-9.63 29.7-9.63-.09 3.58-.84 16.46-.48 17.94z" id="W"/>
    <path d="M261.24 165.14c-5.25-5.12-5.72-23.6 1.55-29.47 0 0-6.68-5.39-11.26-4.34-4.9 2.98-8.54 7.64-10.25 13.12a107.873 107.873 0 00-5.92 38.08c.28 17.46 0 70.82 0 70.82s2.34 11.29 17.41 19.68 26.27 9.21 36.5 6.84c8.43-1.97 15.37-4.94 18.31-11.07-.76-12.23-6.22-44.18-4.18-59.57s5.29-26.91 6.14-39.32c.84-12.42-1.64-12.2-7.88-16.66a96.111 96.111 0 00-11.8-7.57s-11.95 17.8-28.62 19.46z" id="X"/>
    <path d="M250.73 100.34c1.97-12.81 11.17-22.46 24.34-21.78 14.01.77 24.75 12.75 23.98 26.77v.02a25.175 25.175 0 01-11.06 19.47s-1.21 4.61-2.04 5.58c-4.66 5.46-18.76 8.82-22.81 8.24-5.2-.74-8.02-2.91-10.49-8.6-4.35-9.98-2.98-23.38-1.92-29.7z" id="Y"/>
    <path d="M288.02 124.91c-.73-6.69-1.13-10.41-1.21-11.15 0 0 9.11-23.58-12.41-19.05-14.21 2.99-17.77 4.29-22.1-5.25-4.33-9.53 10.93-18.1 29.04-15.72 12.92 1.36 22.65 12.39 22.39 25.39-.46 7-2.34 21.2-15.71 25.78z" id="Z"/>
    <path d="M307.88 161.81c7.55 4.41 15.01 8.97 22.43 13.57 3.73 2.28 7.44 4.57 11.12 6.94.37.24 2.21 1.41 5.52 3.52l1.39.88c.2.13.32.2.34.22.09 0 .31.19.25.14-.07-.05 0 0-.08 0 .13.06.27.11.41.14.72.1 1.43-.2 1.84-.8.59-1.14 5.23-10.26 5.81-11.4 4.09-7.8 9.2-15.11 13.54-22.77 1.13.55 10.11 4.9 11.23 5.45-3.15 8.22-5.43 16.72-8.86 24.82-.17.4-1.05 2.42-2.64 6.06l-1.28 3.01-.68 1.51-.33.76-.19.42c-.2.4-.31.62-.33.67-1.85 3.62-4.75 6.6-8.32 8.54a20.366 20.366 0 01-17.68.84c-.53-.24-1.05-.49-1.57-.75-.16-.08-.32-.17-.47-.27-.02-.01-.14-.08-.36-.21l-1.42-.86c-3.41-2.06-5.3-3.2-5.68-3.42-3.84-2.27-7.55-4.62-11.3-6.95-7.53-4.65-15.02-9.37-22.42-14.22 1.94-3.17 7.79-12.67 9.73-15.84z" id="aa"/>
    <path d="M317.64 195.51c-2.4 0-21.79-19.84-21.79-19.84s-8.56-12.48 1.28-18.72c9.84-6.24 36.97 17.23 36.97 17.23-3.29 4.26-3.1 16.27-16.46 21.33z" id="ab"/>
    <path d="M302.49 153.28a95.466 95.466 0 00-11.79-7.6 54.964 54.964 0 01-6.21 7.33c2.64 42.06 8.34 85.55 1.05 127.67 1.53-.19 3.05-.46 4.56-.81 8.43-1.97 15.38-4.94 18.31-11.07-.76-12.23-6.21-44.18-4.18-59.57 1.1-8.35 2.57-15.53 3.85-22.36 4.71 4.5 9.34 8.65 10.44 8.64 13.36-5.13 16.47-21.33 16.47-21.33s-15.56-13.38-27.37-17.24c-1.29-1.14-2.99-2.13-5.13-3.66z" id="ac"/>
    <path d="M142.5 353.49v10.25c.01-.12.01-.25 0-.37v-10.25c.01.12.01.24 0 .37" id="ad"/>
    <path d="M142.46 353.12v10.25c-.06-.39-.2-.75-.41-1.08v-10.25c.21.33.35.69.4 1.08" id="ae"/>
    <path d="M142.06 352.04v10.25c-.22-.37-.51-.7-.84-.97v-10.25c.33.28.62.61.86.97" id="af"/>
    <path d="M141.21 351.09v10.25c-.29-.23-.59-.44-.91-.62a6.79 6.79 0 00-1.29-.58v-10.25c.45.15.88.34 1.29.57.32.18.62.39.91.63" id="ag"/>
    <path d="M139.05 349.81v10.25c-.6-.22-1.21-.39-1.84-.5v-10.25c.63.11 1.24.28 1.84.5" id="ah"/>
    <path d="M137.21 349.36v10.25c-.98-.16-1.97-.22-2.96-.16V349.2c.99-.07 1.98-.02 2.96.15" id="ai"/>
    <path d="M134.25 349.21v10.25c-.62.04-1.23.12-1.83.26v-10.26c.6-.12 1.21-.2 1.83-.24" id="aj"/>
    <path d="M132.42 349.45v10.25c-.58.13-1.14.3-1.68.53v-10.25c.54-.23 1.09-.4 1.66-.53" id="ak"/>
    <path d="M130.75 349.98v10.25c-.33.13-.65.28-.95.46a3.69 3.69 0 00-2.14 3.01v-10.25c.13-1.32.95-2.47 2.15-3.01.31-.18.62-.34.95-.46" id="al"/>
    <path d="M181.65 353.65v10.26c0 6.85-4.54 13.71-13.55 18.93-1.9 1.11-3.88 2.09-5.92 2.93v-10.26c2.04-.83 4.02-1.81 5.93-2.92 8.97-5.22 13.51-12.08 13.54-18.94" id="am"/>
    <path d="M162.18 375.44v10.25a62.789 62.789 0 01-10.47 3.24v-10.25c3.58-.77 7.08-1.86 10.47-3.24" id="an"/>
    <path d="M151.71 378.72v10.25c-3.8.82-7.65 1.35-11.53 1.58v-10.19c3.88-.24 7.73-.77 11.53-1.59" id="ao"/>
    <path d="M140.18 380.31v10.18c-6.2.41-12.44.09-18.57-.96v-10.25a79.991 79.991 0 0018.54 1.03" id="ap"/>
    <path d="M121.64 379.28v10.25c-3.93-.68-7.79-1.71-11.53-3.09v-10.25c3.74 1.38 7.6 2.41 11.53 3.09" id="aq"/>
    <path d="M110.08 376.19v10.25a49.98 49.98 0 01-7.81-3.65c-2-1.13-3.9-2.45-5.66-3.93v-10.25c1.77 1.47 3.66 2.79 5.66 3.93 2.5 1.44 5.11 2.66 7.82 3.65" id="ar"/>
    <path d="M96.6 368.61v10.25c-2.09-1.74-3.9-3.79-5.35-6.09v-10.25c1.45 2.3 3.26 4.35 5.35 6.09" id="as"/>
    <path d="M91.25 362.52v10.25a17.644 17.644 0 01-2.57-6.79v-10.19c.39 2.41 1.26 4.72 2.57 6.78" id="at"/>
    <path d="M88.68 355.74v10.19c-.11-.79-.17-1.59-.18-2.38V353.3c.01.8.07 1.6.18 2.39" id="au"/>
    <path d="M168.11 372.59c-18.13 10.54-47.61 10.52-65.86 0-18.24-10.52-18.33-27.65-.15-38.16 18.18-10.5 47.55-10.57 65.8 0 18.24 10.54 18.35 27.63.21 38.16zm-38.27-16.04c3.29 1.68 7.19 1.68 10.48 0 2.91-1.68 2.9-4.39 0-6.07-3.29-1.69-7.2-1.69-10.49 0-2.89 1.66-2.86 4.4 0 6.07" id="av"/>
    <path d="M618.4 444.22a.24.24 0 01-.12.07c-1.55.9-9.32 5.43-23.31 13.59l-5.2-12.81c12.91-7.52 20.08-11.7 21.51-12.53.05-.05.1-.08.16-.11.04-.02.33-.18.37-.2 1.09-.37 2.29-.2 3.23.46a10.68 10.68 0 014.87 8.38 3.33 3.33 0 01-1.51 3.15z" id="aw"/>
    <path d="M612.87 457.32c0-.39-.06-.76-.1-1.14-.04-.39 0-.53-.06-.8-.01-.07-.11-.66-.12-.73 0-.22-.06-.45-.1-.66-.01-.05-.07-.45-.08-.5-.15-.84-.31-1.49-.34-1.66v-.11-.23c-.09-.4-.2-.8-.3-1.2-.1-.39-.22-.75-.32-1.12a.902.902 0 01-.06-.22v-.12c-.14-.46-.28-.91-.44-1.37-.02-.06-.14-.37-.34-.93-.05-.14-.08-.22-.08-.23 0 0 0-.11-.07-.17-.15-.42-.33-.86-.5-1.28-.02-.06-.16-.39-.41-.96-.04-.1-.07-.16-.07-.17v-.14l-.58-1.28c-.17-.36-.34-.71-.51-1.05-.01-.01-.03-.05-.07-.12v-.07c-.2-.41-.42-.82-.64-1.29-.21-.46-.42-.75-.64-1.14l-.73-1.28-.71-1.12v-.07c-.27-.42-.56-.83-.84-1.28-.04-.06-.25-.35-.63-.88l-.19-.26-.11-.17-1.08-1.39-.29-.35-.48-.56c-.34-.4-.52-.63-.56-.67-.16-.18-.32-.33-.48-.5-.34-.38-.7-.77-1.07-1.14-.16-.17-.31-.35-.48-.51-.03-.04-.21-.2-.53-.5l-.7-.66-1.28-1.08c-.39-.34-.61-.52-.65-.56-.53-.41-1.05-.8-1.58-1.17-.03-.03-.33-.26-.37-.29-.61-.42-1.28-.82-1.87-1.19a2.98 2.98 0 01-.24-.14c-.72-.42-1.46-.81-2.22-1.15-.59-.26-1.17-.5-1.74-.71h-.18c-.22-.07-.35-.1-.37-.11-.3-.1-.58-.21-.87-.28-.05-.02-.28-.07-.7-.17l-.32-.06h-.21c-.38-.08-.74-.15-1.09-.18H581.6c-.29 0-.58 0-.86.11-.05 0-.28-.01-.69-.02h-.2l-.3.06-.8.22-.34.13-.18.07c-.15.06-.23.09-.25.09-.26.1-.51.22-.75.35-.03.01-.18.1-.44.24-2.58 1.5-4.02 2.33-4.3 2.5.45-.26.93-.49 1.42-.68.02-.01.17-.06.19-.06.47-.17.95-.31 1.43-.41h.2c.51-.09 1.03-.16 1.55-.2h.2c.54-.03 1.08-.03 1.62 0h.27c.57.06 1.14.15 1.7.26.03.01.29.07.32.08.51.11 1.04.27 1.56.43.04.02.35.12.39.13.66.23 1.31.49 1.95.78.73.34 1.47.71 2.23 1.14.75.44 1.41.86 2.1 1.35.13.08.24.18.37.27.54.38 1.06.77 1.57 1.19.07.06.6.5.67.55.41.35.83.71 1.28 1.08.07.06.64.59.71.65.33.33.68.67 1.01 1.01.33.35.72.76 1.08 1.16.35.39.69.77 1.02 1.16.05.06.43.51.47.57.52.61 1.02 1.28 1.5 1.89.02.03.17.24.18.27.52.71 1.02 1.41 1.49 2.14v.07c.5.78.99 1.56 1.45 2.37.47.8.91 1.61 1.28 2.44-.01.04-.01.07 0 .11.41.8.78 1.61 1.14 2.43.03.06.05.12.08.18.36.81.68 1.61.97 2.42 0 .08 0 .16.09.22.29.81.56 1.63.81 2.43 0 .07 0 .15.06.21.23.78.44 1.55.62 2.33 0 .08 0 .15.06.23.17.76.32 1.51.44 2.26 0 .23.07.45.1.68.08.51.14 1.01.19 1.52.05.51.08.76.1 1.13 0 .72.09 1.42.08 2.11 0 6.67-2.37 11.34-6.15 13.55l4.3-2.5c3.85-2.21 6.14-6.9 6.17-13.55.15-.46.14-1 .11-1.55v-.48z" id="ax"/>
    <path d="M608.59 461.89c-.03 13.42-9.53 18.81-21.19 12.07-11.66-6.74-21.1-23.06-21.07-36.47.04-13.4 9.54-18.78 21.21-12.08 11.66 6.74 21.09 23.07 21.05 36.48z" id="ay"/>
    <path d="M612.08 465.17c0-.46-.08-.93-.13-1.41-.05-.47 0-.66-.09-1-.09-.33-.09-.61-.14-.91-.05-.29-.08-.56-.13-.84-.05-.28 0-.41-.1-.62-.12-.69-.26-1.39-.42-2.09a.33.33 0 010-.14c-.01-.02-.07-.24-.08-.27-.12-.5-.23-1.01-.37-1.51-.14-.5-.27-.93-.41-1.41-.02-.09-.05-.18-.08-.27v-.15c-.18-.56-.36-1.14-.55-1.71l-.42-1.17c0-.09-.07-.18-.1-.29-.01-.02-.07-.18-.08-.2-.21-.55-.41-1.09-.64-1.63-.23-.54-.34-.79-.5-1.19-.01-.02-.09-.21-.1-.23a1.22 1.22 0 00-.07-.17c-.23-.52-.47-1.05-.72-1.56-.24-.51-.42-.87-.64-1.28 0-.01-.03-.06-.07-.14v-.11c-.39-.76-.73-1.38-.81-1.53-.26-.48-.53-.95-.8-1.43v-.06c-.3-.51-.6-1.02-.92-1.52-.32-.5-.59-.95-.88-1.41v-.08c-.5-.77-.94-1.38-1.04-1.54-.26-.37-.53-.73-.78-1.09-.02-.02-.1-.13-.25-.33-.09-.12-.14-.19-.15-.21-.45-.6-.9-1.17-1.34-1.74-.04-.04-.34-.39-.38-.43-.19-.25-.39-.48-.59-.71-.19-.23-.47-.58-.71-.84-.25-.27-.39-.41-.58-.62-.45-.5-.9-.97-1.34-1.45-.05-.04-.25-.25-.61-.62l-.66-.63c-.53-.49-.82-.77-.87-.82-.52-.48-1.03-.93-1.56-1.36-.28-.23-.55-.48-.83-.69-.65-.53-1.28-1.02-1.97-1.49a7.95 7.95 0 01-.46-.35 48.007 48.007 0 00-2.66-1.67c-.88-.52-1.76-.97-2.56-1.38h-.2a29.917 29.917 0 00-2.39-.96l-.48-.14-1.08-.34-.87-.21-.41-.09c-.15-.04-.24-.06-.26-.06-.46-.09-.92-.17-1.37-.22h-3.59c-.35 0-.71.08-1.07.13-.03 0-.16.03-.4.09h-.26c-.22.04-.34.07-.37.08-.34.07-.67.16-1 .28l-.42.15-.23.09c-.18.07-.29.11-.31.12-.33.12-.64.28-.95.43-.03.02-.21.12-.53.3-3.24 1.88-5.04 2.93-5.4 3.14.57-.33 1.17-.62 1.78-.85.03-.01.21-.08.23-.09.59-.21 1.2-.38 1.81-.51h.24c.64-.13 1.28-.21 1.93-.25h.28c.67-.04 1.35-.04 2.02 0h.35c.71.07 1.42.19 2.12.34l.4.09c.64.15 1.28.33 1.96.55.05.01.43.12.48.14.8.28 1.62.61 2.46 1h.12c.88.41 1.75.86 2.64 1.37.9.51 1.77 1.08 2.64 1.68.05.03.43.31.48.34.66.48 1.28.96 1.97 1.49.08.07.74.62.82.69.53.44 1.04.89 1.55 1.36.3.27.59.54.87.82.29.28.85.83 1.28 1.28.44.45.91.94 1.35 1.42.44.49.87.98 1.28 1.48.21.23.4.46.59.7.64.77 1.28 1.57 1.87 2.39.03.03.22.3.25.33.64.87 1.28 1.77 1.85 2.68.01.03.01.06 0 .09.64.96 1.28 1.96 1.84 2.96v.06c.57 1 1.14 2.03 1.65 3.05.01.02.07.14.08.15.51 1.02.98 2.03 1.43 3.04.01.02.08.21.09.23.44 1 .85 2.01 1.28 3.03 0 .1 0 .19.09.28.37 1.01.72 2.02 1.03 3.03 0 .03.07.25.07.27.28.98.55 1.95.78 2.92.02.1.04.19.07.27.22.97.4 1.9.55 2.85 0 .28.09.56.13.84.1.64.16 1.29.23 1.91.06.63.1.95.13 1.43.06.88.11 1.76.11 2.64 0 8.35-2.97 14.22-7.69 16.97.54-.31 4.87-2.82 5.41-3.14 4.75-2.75 7.69-8.62 7.69-16.97-.41-.86-.41-1.54-.41-2.22v-.63z" id="az"/>
    <path d="M606.67 470.96c-.04 16.8-11.94 23.58-26.56 15.14-14.62-8.45-26.42-28.89-26.37-45.7.05-16.81 11.93-23.56 26.55-15.13 14.62 8.44 26.42 28.89 26.38 45.69z" id="aA"/>
    <path d="M607.43 474.92c0-.57-.09-1.18-.16-1.77-.06-.59-.06-.82-.11-1.28-.05-.46-.12-.75-.18-1.14-.02-.1-.14-.94-.15-1.05 0-.25-.08-.51-.13-.77-.16-.86-.34-1.73-.53-2.56v-.17c-.03-.11-.06-.23-.09-.36-.15-.62-.29-1.28-.47-1.87-.18-.59-.32-1.17-.5-1.75 0-.12 0-.23-.09-.33v-.2c-.22-.71-.45-1.42-.69-2.14-.17-.48-.35-.97-.53-1.46-.01-.02-.04-.14-.11-.36-.07-.15-.1-.24-.11-.25-.25-.68-.51-1.36-.79-2.04-.28-.68-.41-.99-.63-1.47-.04-.1-.08-.2-.13-.3a.722.722 0 00-.09-.2c-.28-.66-.59-1.28-.89-1.96-.31-.68-.53-1.09-.8-1.63 0-.01-.03-.07-.09-.18a.807.807 0 01-.06-.13c-.32-.64-.67-1.28-1.01-1.91-.35-.63-.66-1.19-.99-1.78v-.08c-.37-.64-.74-1.28-1.14-1.9-.4-.63-.73-1.17-1.12-1.75a.207.207 0 00-.06-.1v-.06c-.42-.66-.86-1.29-1.28-1.93-.42-.64-.65-.91-.99-1.35-.02-.03-.12-.17-.29-.43-.12-.15-.18-.24-.19-.25a74.45 74.45 0 00-1.7-2.18c-.03-.04-.18-.22-.44-.54-.45-.53-.7-.82-.75-.88-.29-.35-.59-.72-.88-1.05-.3-.34-.49-.52-.73-.77-.55-.62-1.12-1.22-1.68-1.8-.26-.27-.5-.55-.76-.8-.25-.26-.55-.52-.83-.79-.11-.1-.97-.91-1.08-1.01a51.27 51.27 0 00-1.94-1.7c-.11-.09-.93-.78-1.03-.86-1.2-.96-2.21-1.66-2.46-1.85-.19-.14-.38-.3-.59-.43-.96-.67-1.93-1.3-2.92-1.89-.22-.13-.35-.2-.37-.21-.59-.34-1.17-.66-1.76-.95-.03-.02-.22-.11-.55-.28l-1.16-.57h-.07a.973.973 0 00-.15-.06c-.77-.35-1.54-.65-2.28-.94-.02 0-.12-.04-.28-.1-.11-.04-.17-.06-.18-.06-.67-.23-1.29-.44-1.98-.62h-.06c-.2-.04-.31-.07-.33-.08-.47-.11-.93-.23-1.38-.32h-.23c-.14 0-.29 0-.43-.07-.14-.08-.64-.12-.96-.16h-5.12c-.04.01-.26.04-.66.09h-.35l-.34.07-.62.13-.32.06-.36.1-.6.18-.29.08-.35.13-.59.21-.27.11-.35.16-.58.27-.25.12-.66.37c-4.19 2.24-6.51 3.48-6.97 3.73.29-.17.6-.32.9-.48.04-.01.24-.11.59-.28l.62-.25.59-.22.64-.22.6-.17.67-.16.63-.13.69-.12.66-.07.71-.07h2.87l.84.08c.42.05.65.08.7.09.32 0 .64.09.94.15.07.01.6.11.67.12.46.1.92.2 1.39.33.03.01.35.08.39.09.66.18 1.28.4 1.98.63.04.02.4.15.44.17.76.28 1.53.59 2.3.93.01.01.08.04.22.09l1.16.56.55.27c1.06.58 1.64.9 1.76.96 1.1.65 2.2 1.35 3.29 2.11.06.04.53.38.59.42.82.6 1.65 1.2 2.46 1.86.1.08.92.77 1.03.86a94.4 94.4 0 011.94 1.7c.11.1.97.91 1.08 1.01.54.51 1.06 1.05 1.59 1.59.52.54 1.13 1.18 1.68 1.78.55.6 1.09 1.21 1.61 1.83.25.3.5.58.74.89.8.96 1.58 1.96 2.34 2.97.09.14.19.28.29.41.8 1.09 1.58 2.21 2.32 3.35.03.03.05.07.07.11.79 1.21 1.55 2.45 2.28 3.7v.08c1.1 1.88 1.86 3.46 2.07 3.84.03.07.06.14.09.2.63 1.28 1.28 2.56 1.78 3.84.04.1.08.19.13.28.54 1.28 1.05 2.57 1.51 3.78 0 .12.09.23.13.35.46 1.28.88 2.56 1.28 3.84 0 .12.07.23.1.34.36 1.21.68 2.43.98 3.64.01.03.07.32.08.35.28 1.18.5 2.36.69 3.54.06.35.11.71.16 1.05.12.81.21 1.59.3 2.38 0 .59.11 1.18.15 1.77.08 1.12.14 2.22.13 3.31.11 4.54-.76 9.04-2.56 13.21a17.596 17.596 0 01-7.04 7.98c4.05-2.35 6.29-3.66 6.74-3.92 5.94-3.45 9.61-10.77 9.65-21.19-.01-1.01-.04-1.86-.08-2.71 0-.25 0-.52-.07-.78z" id="aB"/>
    <path d="M591.1 449.57c12.92 22.23 12.96 46.33.08 53.81-12.88 7.48-33.8-4.47-46.72-26.71-12.92-22.24-12.95-46.33-.07-53.81 12.88-7.49 33.79 4.47 46.71 26.71z" id="aC"/>
    <path d="M578.93 472.33c.14-.44.23-.9.3-1.37v-.15a.33.33 0 010-.14c0-.41.07-.82.07-1.28v-.18c.01-.1.01-.19 0-.28V468v-.18-.3c-.02-.25-.06-.49-.11-.73v-.27c-.02-.09-.04-.18-.07-.26 0-.23-.1-.47-.16-.72-.07-.24 0-.2-.08-.32-.08-.11 0-.13 0-.19-.09-.27-.17-.54-.26-.81 0-.02-.04-.13-.11-.33v-.1c-.16-.45-.34-.9-.53-1.28v-.11c-.2-.47-.45-.94-.69-1.42l-.1-.19a.81.81 0 01-.1-.18c-.21-.36-.41-.7-.63-1.05a2.83 2.83 0 01-.14-.23c-.27-.41-.55-.82-.85-1.28v-.09c-.05-.06-.08-.09-.09-.09-.48-.63-.99-1.23-1.54-1.8 0 0-.05-.07-.06-.07 0-.08-.14-.13-.21-.21-.04-.04-.28-.26-.7-.65l-.35-.31-.79-.63-.22-.16h-.06c-.34-.23-.68-.46-1.03-.66-.03-.01-.26-.15-.29-.16a1.15 1.15 0 00-.25-.12c-.23-.13-.47-.23-.7-.33-.01-.01-.08-.04-.19-.09a2.2 2.2 0 01-.21-.07c-.19-.07-.38-.14-.57-.19-.02 0-.1-.03-.25-.09h-.15c-.18-.04-.37-.08-.55-.1a1.13 1.13 0 00-.26 0h-.1a6.83 6.83 0 00-.64 0H566c-.3.02-.6.06-.9.12h-.1c-.3.07-.58.17-.86.32h-.12l-.18.1c-1.43.83-2.22 1.29-2.37 1.38.09-.06.19-.1.29-.14.27-.14.56-.25.86-.32h.17c.29-.06.58-.1.88-.11h.26c.21-.02.42-.02.64 0 .03 0 .33.05.37.06.18.02.36.06.54.1.14.03.27.07.41.12l.56.18c.24.1.37.15.4.16.23.11.47.21.7.34.19.08.37.17.54.28.35.19.69.42 1.03.65.02.02.25.19.28.21.27.2.54.41.79.62.04.04.31.28.35.31.24.21.47.44.7.66.09.1.18.19.28.28.55.56 1.06 1.16 1.53 1.79.01.02.14.16.15.18.3.4.58.81.85 1.22.01.02.13.21.14.23.22.34.42.69.63 1.05.02.04.18.33.2.37.25.48.49.95.69 1.42.03.04.05.09.07.13.19.44.37.89.52 1.28.02.05.14.39.16.44.09.27.18.54.25.82.08.28.09.33.13.5.04.16.13.49.18.73.05.24.07.33.1.5.02.07.11.67.12.74v1.87c0 .45 0 .86-.08 1.28v.3c-.06.46-.17.92-.31 1.37-.12.4-.3.79-.51 1.15-.03.07-.06.13-.1.19a4.826 4.826 0 01-.82 1.04c-.26.26-.55.48-.86.67.24-.14 2.15-1.25 2.38-1.38.32-.19.6-.42.86-.67.02-.02.14-.14.16-.15.25-.28.47-.57.66-.89.01-.02.1-.17.11-.19.1-.4.17-.8.2-1.21z" id="aD"/>
    <path d="M577.46 470.77c-.03 5.91-4.3 8.3-9.57 5.33-5.28-2.97-9.55-10.16-9.54-16.08.01-5.92 4.32-8.28 9.6-5.3 5.27 2.96 9.53 10.14 9.51 16.05z" id="aE"/>
    <path d="M571.78 470.3c.03-.11.05-.22.06-.34.01-.06.01-.12 0-.18.02-.24.02-.48 0-.73v-.07c.02-.24.02-.48 0-.72.01-.09.01-.18 0-.27.01-.06.01-.13 0-.19v-.23c-.03-.23-.09-.45-.15-.67v-.15-.18c-.01-.03-.05-.15-.11-.36-.17-.41-.26-.63-.27-.68v-.06c-.13-.31-.29-.61-.44-.9a.47.47 0 01-.06-.09c-.26-.44-.54-.87-.84-1.28-.17-.2-.26-.31-.28-.33-.18-.22-.34-.43-.54-.62 0-.01-.02-.03-.06-.08-.12-.1-.19-.16-.21-.18-.25-.25-.52-.48-.8-.69-.05-.05-.11-.1-.17-.14-.18-.13-.37-.26-.56-.37-.02-.01-.14-.08-.16-.09-.2-.1-.41-.21-.6-.28h-.32c-.13-.05-.2-.07-.22-.08-.16-.04-.33-.07-.5-.09h-.5a2.41 2.41 0 00-.38 0h-.13c-.2.05-.39.12-.58.21h-.09l-102.26 59.39-106.99 62.41c.22-.12.45-.2.7-.25h.09c.23-.03.46-.03.69 0h.12c.27.03.53.09.79.18h.16c.32.11.62.25.92.42.25.16.49.33.73.51.28.21.55.44.81.69.09.09.19.17.27.26.18.19.36.4.52.61.12.13.23.25.33.39.3.41.58.84.84 1.28.18.33.36.67.51 1.01v.07c.14.34.27.69.38 1.05v.16c.11.36.18.71.25 1.05v.2c.05.36.08.72.09 1.09-.01.3-.04.61-.09.9-.02.12-.04.23-.07.34-.04.18-.1.35-.18.52-.02.1-.06.2-.11.29-.08.15-.18.29-.28.43-.05.06-.09.12-.14.18-.17.18-.35.33-.56.46 20.91-12.19 188.12-109.75 209.02-121.95.21-.12.39-.27.55-.44.05-.06.1-.12.14-.18.11-.14.2-.29.28-.44.08-.08.15-.17.22-.27.07-.17.13-.34.18-.52z" id="aF"/>
    <path d="M374.26 609.35c0-.58-.1-1.18-.15-1.77-.06-.59-.07-.83-.12-1.28-.05-.45-.13-.76-.18-1.14-.05-.38-.1-.69-.17-1.05-.06-.36-.06-.51-.11-.77-.16-.87-.33-1.73-.53-2.56v-.17c-.04-.21-.07-.32-.07-.34-.16-.63-.31-1.29-.48-1.9-.16-.62-.32-1.17-.5-1.74 0-.12-.06-.23-.1-.34a.67.67 0 000-.2c-.22-.71-.45-1.42-.69-2.13-.17-.49-.35-.97-.53-1.46 0-.12-.07-.23-.13-.36-.02-.09-.05-.18-.08-.27-.26-.68-.53-1.34-.8-2.02-.27-.68-.42-.99-.63-1.48-.03-.09-.08-.19-.13-.28a1.02 1.02 0 00-.09-.22c-.28-.66-.58-1.28-.89-1.96-.31-.68-.53-1.07-.8-1.61l-.09-.19s0-.09-.06-.13c-.33-.64-.67-1.28-1.01-1.92-.35-.64-.66-1.17-.99-1.76.01-.03.01-.06 0-.09-.37-.64-.74-1.28-1.14-1.91-.4-.63-.73-1.16-1.1-1.74-.01-.01-.03-.04-.08-.1-.42-.66-.86-1.28-1.28-1.92-.42-.65-.65-.91-.99-1.36-.1-.14-.19-.28-.29-.41-.02-.03-.17-.25-.19-.27-.55-.75-1.12-1.46-1.69-2.18-.03-.04-.18-.22-.45-.54l-.75-.88c-.53-.63-.82-.98-.88-1.05-.23-.27-.49-.52-.73-.77-.55-.62-1.12-1.21-1.68-1.8-.26-.25-.5-.53-.76-.79-.25-.26-.55-.53-.83-.78-.14-.12-1.27-1.07-1.41-1.19a64.13 64.13 0 00-1.95-1.7c-.33-.29-.67-.58-1.02-.85-.81-.66-1.63-1.28-2.46-1.86-.06-.05-.53-.39-.59-.44-.96-.66-1.94-1.28-2.92-1.87-.04-.02-.35-.21-.39-.23a42.098 42.098 0 00-2.29-1.23l-1.17-.56h-.06c-.09-.04-.14-.06-.15-.07-.77-.34-1.54-.65-2.3-.92-.02-.01-.1-.05-.27-.11h-.18c-.66-.24-1.28-.44-1.97-.62-.2-.05-.31-.07-.33-.08-.46-.11-.92-.23-1.39-.32h-.21l-.44-.07-.95-.16h-.7l-.85-.07H324.52l-.66.09h-.34l-.35.07-.63.13-.32.06-.34.09-.62.18-.28.08-.36.14-.59.22-.25.09-.35.17-.59.26a14.373 14.373 0 00-.91.49c-4.04 2.35-6.29 3.66-6.74 3.92.3-.18.6-.33.91-.48.04-.02.24-.11.59-.27l.6-.27.59-.22.64-.21.62-.17.66-.17.63-.13.68-.1.67-.09.7-.07h2.17c.23-.01.47-.01.7 0 .06.01.34.03.85.07l.69.09.96.15c.39.08.61.12.65.13.47.09.93.2 1.39.32l.4.1c.65.18 1.28.39 1.97.62.04.01.4.15.45.16.75.29 1.51.59 2.29.94.01.01.09.04.22.09l1.16.56.56.29c.57.29 1.16.61 1.74.94 1.11.64 2.21 1.35 3.3 2.1.06.05.53.4.59.44.86.59 1.68 1.2 2.46 1.85a146.17 146.17 0 012.98 2.56c.07.07.43.4 1.07 1.01.96.95 1.49 1.48 1.59 1.59.57.59 1.13 1.18 1.68 1.79.55.62 1.09 1.21 1.61 1.82.08.09.67.8.75.89.79.97 1.57 1.96 2.33 2.97.03.04.27.38.29.42a82.725 82.725 0 012.4 3.45c.78 1.22 1.55 2.45 2.27 3.7a.11.11 0 000 .08c.72 1.28 1.41 2.56 2.06 3.84l.09.18c.63 1.28 1.22 2.57 1.78 3.85.04.1.08.2.13.29.54 1.28 1.05 2.5 1.51 3.77 0 .11.09.24.13.36.46 1.28.88 2.56 1.28 3.84 0 .12.07.23.1.35.36 1.2.68 2.42.97 3.64l.09.34c.39 1.77.62 3.19.69 3.54.06.35.11.7.16 1.05.12.81.21 1.59.29 2.38.06.59.12 1.18.16 1.77.08 1.12.13 2.22.13 3.31 0 10.41-3.7 17.74-9.64 21.19.68-.39 6.07-3.53 6.74-3.92 5.94-3.45 9.61-10.78 9.64-21.19.01-1.07 0-1.91-.05-2.76v-.78z" id="aG"/>
    <path d="M367.58 616.58c-.06 20.96-14.89 29.47-33.15 18.88-18.25-10.58-32.96-36.05-32.9-57.02.06-20.96 14.89-29.43 33.12-18.9 18.26 10.55 33 36.07 32.93 57.04z" id="aH"/>
    <path d="M360.55 610.87c0-.46-.08-.93-.13-1.4-.05-.48 0-.67-.09-1-.09-.34-.1-.62-.14-.91-.04-.3-.09-.57-.13-.85-.04-.28 0-.41-.1-.61-.13-.7-.27-1.4-.42-2.09v-.14-.27c-.12-.5-.25-1.02-.38-1.52-.12-.5-.26-.93-.41-1.4 0-.02-.03-.11-.07-.27v-.16c-.18-.56-.36-1.14-.55-1.7-.05-.12-.38-1.06-.43-1.18 0-.09-.06-.18-.1-.28-.01-.02-.07-.19-.08-.21a45.9 45.9 0 00-.64-1.63c-.21-.53-.33-.79-.5-1.19-.01-.02-.09-.2-.1-.23 0 0 0-.1-.06-.16-.23-.53-.48-1.05-.72-1.57-.07-.13-.59-1.15-.65-1.28-.02-.05-.04-.1-.07-.14v-.1c-.38-.77-.72-1.39-.8-1.54-.26-.47-.53-.95-.8-1.42v-.07c-.29-.51-.6-1.02-.91-1.52-.06-.09-.36-.56-.9-1.41v-.08c-.33-.51-.69-1.02-1.03-1.53-.35-.52-.53-.74-.8-1.09-.01-.03-.09-.14-.23-.34-.09-.12-.14-.19-.15-.2-.45-.6-.9-1.18-1.36-1.74-.12-.16-.24-.3-.36-.44s-.4-.47-.6-.71c-.21-.23-.46-.57-.71-.84-.05-.06-.52-.55-.57-.62-.45-.5-.9-.97-1.36-1.44-.19-.21-.39-.43-.59-.63-.21-.21-.45-.42-.68-.63-.09-.08-.77-.74-.86-.82-.51-.47-1.04-.92-1.56-1.36-.27-.23-.54-.47-.82-.69-.66-.53-1.28-1.01-1.98-1.49-.04-.03-.42-.31-.47-.34-.77-.54-1.55-1.04-2.33-1.5-.03-.02-.28-.16-.31-.18a36.9 36.9 0 00-2.63-1.37h-.2c-.73-.33-1.46-.63-2.17-.89-.01 0-.09-.03-.23-.07l-.47-.14-1.08-.35-.87-.2-.41-.09h-.27c-.45-.09-.91-.17-1.36-.22H321.33c-.36 0-.72.07-1.08.13-.03 0-.16.03-.41.09h-.24c-.13.01-.25.04-.38.07-.33.08-.67.17-.99.28-.06 0-.35-.04-.86-.11l-.23.09c-.19.07-.29.11-.31.11-.32.13-.63.29-.95.44-.03.02-.21.12-.52.29-3.25 1.89-5.05 2.93-5.41 3.14.57-.32 1.17-.6 1.79-.84.02-.01.21-.08.23-.09.59-.21 1.19-.38 1.8-.51h.25c.64-.13 1.28-.21 1.92-.25h.29c.67-.04 1.35-.04 2.02 0h.33c.72.07 1.44.18 2.14.34.04 0 .36.08.4.09.64.15 1.28.33 1.96.55.05.01.43.12.48.14.8.28 1.62.61 2.46 1h.12c.88.41 1.75.86 2.63 1.37.89.51 1.78 1.07 2.65 1.68.05.03.42.31.46.34.67.48 1.29.96 1.98 1.49.28.22.55.46.83.69.53.44 1.04.88 1.55 1.36.06.05.35.33.87.82.77.77 1.2 1.19 1.28 1.28.45.46.91.94 1.29 1.42.37.49.87.98 1.28 1.48.19.23.39.46.59.7.64.77 1.28 1.56 1.87 2.38.02.04.22.3.24.34.64.87 1.28 1.77 1.86 2.68v.08c.64.97 1.28 1.97 1.82 2.96.57 1 1.13 2.03 1.65 3.05l.08.16c.5 1.01.98 2.02 1.43 3.04.01.02.08.2.09.23.44 1 .85 2.01 1.22 3.02 0 .1.08.19.1.28.37 1.01.72 2.03 1.03 3.04.01.03.07.24.07.27.29.97.56 1.95.77 2.92.01.03.07.24.08.27.22.96.4 1.89.55 2.84 0 .28.09.57.13.85.1.64.17 1.28.23 1.91.06.63.1.95.13 1.42.06.88.11 1.77.1 2.64 0 8.35-2.96 14.22-7.69 16.98.54-.32 4.87-2.83 5.41-3.14 4.74-2.76 7.69-8.63 7.69-16.98.19-.59.18-1.27.14-1.95v-.63z" id="aI"/>
    <path d="M355.19 616.67c-.05 16.8-11.93 23.57-26.55 15.13-14.62-8.44-26.42-28.88-26.37-45.69.05-16.82 11.93-23.59 26.54-15.14 14.62 8.45 26.43 28.9 26.38 45.7z" id="aJ"/>
    <path d="M349.3 614.4c0-.37-.07-.76-.1-1.13-.04-.37 0-.54-.07-.81l-.11-.71c0-.23-.07-.47-.11-.68 0-.05-.07-.44-.07-.49-.11-.56-.22-1.11-.35-1.67.01-.03.01-.07 0-.11v-.22c-.09-.41-.19-.81-.29-1.2-.04-.12-.29-1.02-.32-1.13-.03-.07-.05-.14-.07-.22v-.11c-.14-.47-.28-.91-.43-1.38-.03-.06-.14-.37-.35-.93-.05-.13-.07-.2-.08-.22 0 0 0-.11-.06-.16-.15-.44-.33-.88-.5-1.29-.17-.41-.27-.64-.41-.94-.01-.02-.03-.08-.08-.18v-.13l-.57-1.28-.52-1.05-.06-.12v-.08c-.21-.41-.42-.82-.64-1.21-.22-.4-.42-.77-.64-1.16-.44-.73-.68-1.13-.73-1.21-.23-.39-.48-.76-.72-1.13l-.83-1.28-.63-.87-.19-.27-.12-.17c-.64-.83-1-1.29-1.07-1.38-.11-.13-.21-.23-.3-.36-.03-.04-.19-.23-.47-.57l-.57-.66c-.28-.3-.44-.47-.47-.5-.35-.39-.71-.77-1.08-1.14-.15-.17-.31-.35-.47-.52-.04-.03-.22-.2-.54-.5l-.69-.65-1.28-1.09c-.4-.32-.61-.5-.66-.54-.53-.42-1.05-.82-1.57-1.19-.23-.17-.35-.26-.37-.28-.62-.42-1.29-.82-1.88-1.19-.02-.02-.21-.13-.24-.14-.72-.42-1.46-.81-2.22-1.16-.56-.26-1.14-.5-1.74-.7h-.18c-.22-.07-.34-.11-.37-.12-.29-.09-.58-.19-.87-.26-.05-.02-.28-.07-.69-.17l-.32-.08h-.22c-.37-.07-.73-.13-1.09-.18h-2.87c-.28 0-.58.07-.86.12-.02 0-.13.02-.32.06h-.19c-.19.04-.29.06-.31.07-.27.06-.53.14-.79.23-.03.01-.14.05-.35.12l-.18.07c-.14.05-.23.08-.24.09-.26.11-.51.22-.76.36-.15.06-.29.14-.42.23-.43.25-3.89 2.3-4.32 2.56.46-.26.93-.49 1.42-.68.02 0 .18-.06.2-.06.46-.17.94-.31 1.43-.41h.19c.52-.1 1.03-.17 1.55-.21h.22c.54-.03 1.08-.03 1.62 0h.27c.57.06 1.14.14 1.7.26.03.01.29.07.32.08.51.11 1.04.26 1.56.43.04.01.35.12.39.13.66.22 1.31.48 1.95.78.73.33 1.47.72 2.22 1.14.76.42 1.41.86 2.11 1.35.03.02.33.24.37.27.54.38 1.06.78 1.57 1.19.4.33.63.51.67.55.41.34.83.7 1.28 1.09.45.38.48.42.71.65.06.07.4.4 1.01 1 .64.69 1 1.08 1.07 1.15.35.39.7.77 1.03 1.17.05.06.43.51.47.56.52.63 1.02 1.29 1.5 1.91.07.08.12.17.18.26.52.7 1.01 1.41 1.49 2.14v.06c.5.78.99 1.58 1.45 2.37.47.81.91 1.62 1.28 2.45v.1c.41.81.78 1.63 1.14 2.45.03.05.06.11.08.17.35.8.67 1.61.97 2.42.03.07.06.15.09.23.43 1.22.73 2.18.81 2.42 0 .07 0 .14.06.21.23.78.44 1.56.62 2.33 0 .08 0 .15.06.23.17.76.32 1.51.44 2.27 0 .22.07.45.1.66.07.52.14 1.03.19 1.53.05.5.08.75.1 1.13 0 .71.09 1.42.08 2.12 0 6.65-2.37 11.34-6.15 13.53.43-.25 3.87-2.3 4.3-2.56 3.85-2.2 6.14-6.88 6.17-13.54-.17-.75-.25-1.28-.27-1.83v-.49z" id="aK"/>
    <path d="M345.02 619.02c-.04 13.43-9.53 18.8-21.2 12.07-11.66-6.72-21.1-23.06-21.06-36.48.04-13.41 9.48-18.81 21.21-12.08 11.66 6.74 21.09 23.07 21.05 36.49z" id="aL"/>
    <path d="M334.13 614.72c.14-.45.24-.91.3-1.37v-.16a.33.33 0 000-.14c.06-.42.08-.85.08-1.28v-.18-.28c0-.31 0-.61-.06-.92v-.18-.3c-.01-.05-.05-.29-.12-.74v-.27c-.03-.08-.05-.16-.06-.24 0-.25-.12-.49-.17-.73-.03-.11-.06-.21-.08-.32v-.18c-.07-.28-.16-.55-.25-.82-.09-.27 0-.22-.1-.34v-.1c-.17-.45-.35-.89-.54-1.28v-.09c-.22-.49-.46-.96-.71-1.43l-.1-.2c-.03-.06-.06-.12-.1-.18-.19-.35-.41-.7-.63-1.05-.04-.08-.09-.15-.14-.23-.27-.41-.55-.82-.85-1.21v-.08c-.04-.06-.07-.1-.07-.1-.49-.63-1-1.23-1.54-1.8-.01 0-.03-.03-.08-.07l-.2-.21-.71-.65c-.21-.19-.32-.29-.34-.31-.26-.22-.53-.42-.8-.63-.01-.01-.08-.06-.2-.15h-.07c-.34-.23-.68-.46-1.04-.66-.01-.01-.11-.06-.28-.16-.15-.07-.24-.11-.25-.12-.23-.13-.46-.23-.7-.33-.01-.01-.08-.04-.2-.09l-.21-.06-.56-.2-.24-.09h-.16c-.18-.04-.36-.08-.55-.1-.09-.01-.18-.01-.27 0h-.1a6.83 6.83 0 00-.64 0h-.24c-.31.01-.61.05-.9.12h-.12c-.29.08-.58.18-.85.32h-.12l-.18.1-2.38 1.38c.17-.08.27-.13.29-.14.28-.13.56-.24.86-.32h.17c.29-.07.59-.11.89-.13h.26c.21-.01.42-.01.63 0 .04.01.33.06.37.07.19.02.37.05.55.1.04.01.36.1.4.12.19.05.39.11.58.19.04.01.35.14.39.15.23.1.46.21.69.33.19.09.38.18.56.29.34.19.69.42 1.02.65.03.02.24.18.27.21.27.2.54.41.79.62.03.02.15.13.36.31l.69.65.29.29c.54.56 1.06 1.16 1.53 1.79.06.06.1.12.15.18.29.4.57.81.84 1.22.02.02.14.2.15.23.22.34.43.69.62 1.05.02.04.18.33.2.37.26.47.49.95.71 1.42-.01.04-.01.09 0 .13.19.44.36.88.52 1.28 0 .14.09.3.15.44.05.14.18.54.25.82.08.28.09.33.14.5.05.16.12.48.17.73.05.24.08.33.1.5.01.07.11.67.12.74 0 .17 0 .33.06.49.07.15 0 .61 0 .92v.46c0 .45 0 .86-.09 1.28v.3c-.06.46-.17.92-.31 1.37-.12.4-.29.79-.5 1.15-.01.02-.1.17-.11.19-.18.33-.41.62-.67.89-.01.01-.12.14-.14.15-.26.26-.55.48-.87.67.24-.14 2.15-1.25 2.38-1.39.32-.18.61-.4.86-.66l.16-.16c.25-.26.48-.56.66-.88 0 0 .08-.13.12-.19.13-.42.22-.84.27-1.27z" id="aM"/>
    <path d="M332.67 613.17c-.02 5.91-4.31 8.3-9.59 5.34-5.28-2.96-9.56-10.19-9.56-16.11 0-5.91 4.35-8.27 9.63-5.29 5.27 2.96 9.53 10.15 9.52 16.06z" id="aN"/>
    <path d="M325.71 614.55c-.04.04-.08.06-.13.07-2.09 1.21-18.82 10.93-20.91 12.14.21-.12.39-.26.56-.43 0-.07.08-.14.13-.18.05-.04.21-.3.3-.45.08-.15.07-.18.11-.28.07-.17.12-.35.17-.53.01-.1.01-.21 0-.32.06-.31.09-.62.09-.93-.01-.36-.04-.72-.09-1.08v-.18a7.63 7.63 0 00-.25-1.05c.01-.06.01-.13 0-.19-.11-.35-.23-.69-.38-1.04-.14-.35-.31-.69-.5-1.01-.25-.45-.53-.88-.83-1.28-.04-.04-.29-.35-.32-.39-.18-.2-.35-.42-.53-.61-.03-.03-.25-.22-.28-.25-.25-.25-.52-.49-.8-.71-.25-.17-.48-.35-.74-.5-.25-.16-.63-.31-.91-.43h-.15c-.26-.09-.53-.14-.81-.16h-.1c-.23-.04-.46-.04-.69 0h-.11c-.24.06-.47.15-.69.27 2.08-1.22 18.72-10.95 20.8-12.16.04-.05.1-.08.15-.11.04-.02.34-.18.37-.2 1.09-.37 2.28-.2 3.22.46 2.86 1.86 4.66 4.97 4.83 8.38a3.33 3.33 0 01-1.51 3.15z" id="aO"/>
    <path d="M306.1 623.65c0 3.09-2.19 4.33-4.87 2.78a10.692 10.692 0 01-4.85-8.39c.01-3.09 2.2-4.27 4.88-2.77 2.86 1.86 4.66 4.97 4.84 8.38z" id="aP"/>
    <path d="M141.01 347.08v8.19c.01-.1.01-.2 0-.3v-8.18c.01.09.01.19 0 .29" id="aQ"/>
    <path d="M141 346.79v8.18c-.05-.31-.16-.6-.33-.87v-8.18c.17.26.28.56.33.87" id="aR"/>
    <path d="M140.67 345.97v8.18c-.19-.29-.42-.55-.68-.78v-8.18c.27.22.5.48.69.78" id="aS"/>
    <path d="M139.98 345.13v8.19c-.23-.19-.48-.35-.73-.5a8.23 8.23 0 00-1-.47v-8.19c.34.15.68.33 1.01.53.25.15.49.32.72.51" id="aT"/>
    <path d="M138.26 344.16v8.19c-.48-.17-.97-.3-1.48-.39v-8.18c.51.08 1 .21 1.48.38" id="aU"/>
    <path d="M136.78 343.78v8.18c-.78-.13-1.57-.18-2.37-.14v-8.19c.8-.04 1.59.01 2.37.15" id="aV"/>
    <path d="M134.41 343.63v8.19c-.49.04-.98.11-1.47.21v-8.19c.49-.1.99-.17 1.49-.21" id="aW"/>
    <path d="M132.93 343.84v8.19c-.44.1-.87.24-1.28.42v-8.19c.41-.18.84-.32 1.28-.42" id="aX"/>
    <path d="M131.57 344.26v8.19c-.26.1-.52.23-.76.37-.97.44-1.63 1.36-1.73 2.42v-8.18c.12-1.05.78-1.95 1.75-2.37.24-.15.5-.27.77-.38" id="aY"/>
    <path d="M172.45 347.17v8.19c0 5.51-3.64 11.02-10.87 15.22-1.54.88-3.13 1.66-4.77 2.33v-8.18a39.68 39.68 0 004.76-2.35c7.24-4.19 10.85-9.7 10.86-15.21" id="aZ"/>
    <path d="M156.83 364.73v8.18c-2.73 1.1-5.54 1.96-8.41 2.57v-8.19c2.87-.61 5.68-1.47 8.41-2.56" id="ba"/>
    <path d="M148.42 367.33v8.18c-3.05.67-6.14 1.1-9.25 1.29v-8.19c3.11-.19 6.2-.62 9.25-1.28" id="bb"/>
    <path d="M139.17 368.61v8.19c-4.98.3-9.98.03-14.89-.82v-8.19c4.91.85 9.91 1.12 14.89.82" id="bc"/>
    <path d="M124.28 367.75v8.19c-3.19-.53-6.33-1.35-9.37-2.45v-8.19c3.04 1.1 6.18 1.92 9.37 2.45" id="bd"/>
    <path d="M114.99 365.3v8.19c-2.17-.79-4.27-1.77-6.28-2.92-1.6-.92-3.12-1.98-4.54-3.17v-8.18c1.42 1.19 2.93 2.25 4.54 3.16 2.01 1.15 4.11 2.13 6.28 2.92" id="be"/>
    <path d="M104.17 359.22v8.18a21.09 21.09 0 01-4.3-4.88v-8.19a20.71 20.71 0 004.3 4.89" id="bf"/>
    <path d="M99.87 354.33v8.19a14.62 14.62 0 01-2.05-5.44v-8.19c.3 1.93 1 3.79 2.05 5.44" id="bg"/>
    <path d="M97.82 348.89v8.19c-.09-.64-.14-1.28-.14-1.93v-8.18c-.01.64.04 1.28.14 1.92" id="bh"/>
    <path d="M161.58 362.38c-14.56 8.46-38.22 8.46-52.87 0-14.65-8.46-14.72-22.17-.17-30.62 14.56-8.46 38.23-8.46 52.87 0 14.65 8.45 14.73 22.16.17 30.62zm-30.73-12.88a9.28 9.28 0 008.43 0c2.32-1.35 2.31-3.53 0-4.89a9.28 9.28 0 00-8.43 0c-2.3 1.34-2.29 3.54 0 4.87" id="bi"/>
    <path d="M139.37 343.15v5.92a.81.81 0 000-.22v-5.92c.01.07.01.15 0 .22" id="bj"/>
    <path d="M139.35 342.93v5.92c-.04-.22-.12-.43-.23-.63v-5.92c.12.19.2.41.23.63" id="bk"/>
    <path d="M139.12 342.3v5.92c-.14-.21-.31-.4-.5-.56v-5.92c.19.16.36.35.5.56" id="bl"/>
    <path d="M138.62 341.74v5.92a3.87 3.87 0 00-.53-.37c-.23-.13-.47-.24-.72-.34v-5.92c.25.09.49.2.72.34.19.11.36.23.53.37" id="bm"/>
    <path d="M137.37 341.03v5.92a8.02 8.02 0 00-1.07-.28v-5.92c.36.06.72.16 1.06.28" id="bn"/>
    <path d="M136.31 340.75v5.92c-.57-.1-1.14-.13-1.72-.09v-5.93c.58-.03 1.15 0 1.72.1" id="bo"/>
    <path d="M134.59 340.65v5.93c-.35.02-.71.06-1.06.14v-5.88c.35-.08.71-.13 1.08-.15" id="bp"/>
    <path d="M133.52 340.84v5.92c-.34.07-.66.18-.98.31v-5.93c.31-.13.64-.23.96-.3" id="bq"/>
    <path d="M132.56 341.1v5.93c-.19.08-.38.17-.55.27-.72.3-1.22.98-1.29 1.75v-5.93c.08-.77.57-1.44 1.29-1.75.03-.02.22-.11.55-.27" id="br"/>
    <path d="M162.1 343.21v5.92c0 3.99-2.63 7.97-7.86 11.01-1.11.64-2.26 1.21-3.45 1.69v-5.92c1.19-.49 2.35-1.05 3.46-1.69 5.23-3.05 7.84-7.02 7.85-11.01" id="bs"/>
    <path d="M150.79 355.91v5.92c-1.97.81-4 1.44-6.09 1.88v-5.92c2.08-.44 4.11-1.07 6.08-1.88" id="bt"/>
    <path d="M144.72 357.79v5.92c-2.21.48-4.44.79-6.69.93v-5.86c2.25-.14 4.49-.44 6.7-.92" id="bu"/>
    <path d="M137.98 358.78v5.92c-3.6.23-7.21.03-10.77-.59v-5.92c3.56.62 7.17.81 10.77.59" id="bv"/>
    <path d="M127.26 358.13v5.92c-2.28-.4-4.53-1-6.71-1.8v-5.92c2.18.8 4.44 1.4 6.73 1.8" id="bw"/>
    <path d="M120.54 356.33v5.92c-1.57-.58-3.1-1.28-4.55-2.11-1.16-.66-2.26-1.43-3.28-2.3v-5.91c1.02.85 2.12 1.61 3.28 2.28 1.45.83 2.97 1.54 4.55 2.12" id="bx"/>
    <path d="M112.71 351.93v5.91c-1.22-1-2.27-2.19-3.12-3.53v-5.92c.85 1.33 1.9 2.53 3.12 3.54" id="by"/>
    <path d="M109.59 348.39v5.92c-.76-1.2-1.27-2.54-1.48-3.95v-5.92c.22 1.4.73 2.75 1.48 3.95" id="bz"/>
    <path d="M108.11 344.44v5.92c-.07-.46-.11-.92-.1-1.38v-5.92c0 .46.03.92.1 1.38" id="bA"/>
    <path d="M154.25 354.22c-10.52 6.12-27.65 6.11-38.26 0s-10.66-16.03-.12-22.16c10.55-6.12 27.65-6.12 38.25-.01 10.6 6.13 10.65 16.04.13 22.17zm-22.23-9.36c1.91.98 4.18.98 6.1 0 1.68-.98 1.66-2.56 0-3.53a6.675 6.675 0 00-6.09 0c-1.68.97-1.66 2.56 0 3.53" id="bB"/>
    <path d="M265.33 125.77c-4 2.42-5.77 1.86-5.33-1.67.44-3.54 2.22-4.58 5.33-3.15" id="bC"/>
    <path d="M265.33 120.99c2 1.26 2 2.86 0 4.81" id="bD"/>
    <path d="M281.9 103.13l-4.18-1.18 3.63-19.02 9.94 2.79-9.39 17.41z" id="bE"/>
    <path d="M258.62 100.71l-4.08 1.49-8.16-17.56 9.69-3.55 2.55 19.62z" id="bF"/>
    <path d="M260.63 109.62c0 1.69-1.33 3.07-2.96 3.07s-2.95-1.38-2.95-3.07c0-1.7 1.32-3.07 2.95-3.07 1.63 0 2.96 1.37 2.96 3.07z" id="bG"/>
    <path d="M280.28 110.13c0 1.7-1.32 3.07-2.95 3.07-1.63 0-2.96-1.37-2.96-3.07 0-1.69 1.33-3.06 2.96-3.06s2.95 1.37 2.95 3.06z" id="bH"/>
  </defs>
  <use xlink:href="#a" fill="#ffcea9"/>
  <use xlink:href="#a" fill-opacity="0" stroke="#000" stroke-opacity="0"/>
  <use xlink:href="#b" fill="#ffcea9"/>
  <use xlink:href="#b" fill-opacity="0" stroke="#ffcea9" stroke-width="2.64"/>
  <use xlink:href="#c" fill="#e2e3ec"/>
  <use xlink:href="#c" fill-opacity="0" stroke="#000" stroke-opacity="0"/>
  <use xlink:href="#d" fill="#88898e"/>
  <use xlink:href="#d" fill-opacity="0" stroke="#000" stroke-opacity="0"/>
  <use xlink:href="#e" fill="#232731"/>
  <use xlink:href="#e" fill-opacity="0" stroke="#000" stroke-opacity="0"/>
  <use xlink:href="#f" fill="#373d4c"/>
  <use xlink:href="#f" fill-opacity="0" stroke="#000" stroke-opacity="0"/>
  <use xlink:href="#g" fill="#232731"/>
  <use xlink:href="#g" fill-opacity="0" stroke="#000" stroke-opacity="0"/>
  <use xlink:href="#h" fill="#e2e3ec"/>
  <use xlink:href="#h" fill-opacity="0" stroke="#000" stroke-opacity="0"/>
  <use xlink:href="#i" fill="#88898e"/>
  <use xlink:href="#i" fill-opacity="0" stroke="#000" stroke-opacity="0"/>
  <use xlink:href="#j" fill="#e2e3ec"/>
  <use xlink:href="#j" fill-opacity="0" stroke="#000" stroke-opacity="0"/>
  <use xlink:href="#k" fill="#373d4c"/>
  <use xlink:href="#k" fill-opacity="0" stroke="#000" stroke-opacity="0"/>
  <use xlink:href="#l" fill="#232731"/>
  <use xlink:href="#l" fill-opacity="0" stroke="#000" stroke-opacity="0"/>
  <use xlink:href="#m" fill="#373d4c"/>
  <use xlink:href="#m" fill-opacity="0" stroke="#000" stroke-opacity="0"/>
  <use xlink:href="#n" fill="#232731"/>
  <use xlink:href="#n" fill-opacity="0" stroke="#000" stroke-opacity="0"/>
  <use xlink:href="#o" fill="#e2e3ec"/>
  <use xlink:href="#o" fill-opacity="0" stroke="#000" stroke-opacity="0"/>
  <use xlink:href="#p" fill="#88898e"/>
  <use xlink:href="#p" fill-opacity="0" stroke="#000" stroke-opacity="0"/>
  <use xlink:href="#q" fill="#e2e3ec"/>
  <use xlink:href="#q" fill-opacity="0" stroke="#000" stroke-opacity="0"/>
  <use xlink:href="#r" fill="#ffcea9"/>
  <use xlink:href="#r" fill-opacity="0" stroke="#000" stroke-opacity="0"/>
  <use xlink:href="#s" fill="#ffcea9"/>
  <use xlink:href="#s" fill-opacity="0" stroke="#000" stroke-opacity="0"/>
  <use xlink:href="#t" fill="#e2e3ec"/>
  <use xlink:href="#t" fill-opacity="0" stroke="#000" stroke-opacity="0"/>
  <use xlink:href="#u" fill="#88898e"/>
  <use xlink:href="#u" fill-opacity="0" stroke="#000" stroke-opacity="0"/>
  <use xlink:href="#v" fill="#232731"/>
  <use xlink:href="#v" fill-opacity="0" stroke="#000" stroke-opacity="0"/>
  <use xlink:href="#w" fill="#373d4c"/>
  <use xlink:href="#w" fill-opacity="0" stroke="#000" stroke-opacity="0"/>
  <use xlink:href="#x" fill="#232731"/>
  <use xlink:href="#x" fill-opacity="0" stroke="#000" stroke-opacity="0"/>
  <use xlink:href="#y" fill="#e2e3ec"/>
  <use xlink:href="#y" fill-opacity="0" stroke="#000" stroke-opacity="0"/>
  <use xlink:href="#z" fill="#88898e"/>
  <use xlink:href="#z" fill-opacity="0" stroke="#000" stroke-opacity="0"/>
  <use xlink:href="#A" fill="#e2e3ec"/>
  <use xlink:href="#A" fill-opacity="0" stroke="#000" stroke-opacity="0"/>
  <use xlink:href="#B" fill="#373d4c"/>
  <use xlink:href="#B" fill-opacity="0" stroke="#000" stroke-opacity="0"/>
  <use xlink:href="#C" fill="#232731"/>
  <use xlink:href="#C" fill-opacity="0" stroke="#000" stroke-opacity="0"/>
  <use xlink:href="#D" fill="#373d4c"/>
  <use xlink:href="#D" fill-opacity="0" stroke="#000" stroke-opacity="0"/>
  <use xlink:href="#E" fill="#232731"/>
  <use xlink:href="#E" fill-opacity="0" stroke="#000" stroke-opacity="0"/>
  <use xlink:href="#F" fill="#e2e3ec"/>
  <use xlink:href="#F" fill-opacity="0" stroke="#000" stroke-opacity="0"/>
  <use xlink:href="#G" fill="#88898e"/>
  <use xlink:href="#G" fill-opacity="0" stroke="#000" stroke-opacity="0"/>
  <use xlink:href="#H" fill="#e2e3ec"/>
  <use xlink:href="#H" fill-opacity="0" stroke="#000" stroke-opacity="0"/>
  <use xlink:href="#I" fill="#ffcea9"/>
  <use xlink:href="#I" fill-opacity="0" stroke="#000" stroke-opacity="0"/>
  <use xlink:href="#J" fill="#ededed"/>
  <use xlink:href="#J" fill-opacity="0" stroke="#000" stroke-opacity="0"/>
  <use xlink:href="#K" fill="#8ca525"/>
  <use xlink:href="#K" fill-opacity="0" stroke="#000" stroke-opacity="0"/>
  <use xlink:href="#L" fill="#cad493"/>
  <use xlink:href="#L" fill-opacity="0" stroke="#000" stroke-opacity="0"/>
  <use xlink:href="#M" fill="#d6d8e5"/>
  <use xlink:href="#M" fill-opacity="0" stroke="#000" stroke-opacity="0"/>
  <use xlink:href="#N" fill="#d6d8e5"/>
  <use xlink:href="#N" fill-opacity="0" stroke="#000" stroke-opacity="0"/>
  <use xlink:href="#O" fill="#d6d8e5"/>
  <use xlink:href="#O" fill-opacity="0" stroke="#000" stroke-opacity="0"/>
  <use xlink:href="#P" fill="#ffcea9"/>
  <use xlink:href="#P" fill-opacity="0" stroke="#000" stroke-opacity="0"/>
  <use xlink:href="#Q" fill="#38226d"/>
  <use xlink:href="#Q" fill-opacity="0" stroke="#000" stroke-opacity="0"/>
  <use xlink:href="#R" fill="#9c73ff"/>
  <use xlink:href="#R" fill-opacity="0" stroke="#000" stroke-opacity="0"/>
  <use xlink:href="#S" fill="#38226d"/>
  <use xlink:href="#S" fill-opacity="0" stroke="#000" stroke-opacity="0"/>
  <use xlink:href="#T" fill="#9c73ff"/>
  <use xlink:href="#T" fill-opacity="0" stroke="#000" stroke-opacity="0"/>
  <use xlink:href="#U" fill="#8c50ff"/>
  <use xlink:href="#U" fill-opacity="0" stroke="#000" stroke-opacity="0"/>
  <use xlink:href="#V" fill="#ffcea9"/>
  <use xlink:href="#V" fill-opacity="0" stroke="#000" stroke-opacity="0"/>
  <use xlink:href="#W" fill="#ffcea9"/>
  <use xlink:href="#W" fill-opacity="0" stroke="#000" stroke-opacity="0"/>
  <use xlink:href="#X" fill="#f4f4f4"/>
  <use xlink:href="#X" fill-opacity="0" stroke="#000" stroke-opacity="0"/>
  <use xlink:href="#Y" fill="#ffcea9"/>
  <use xlink:href="#Y" fill-opacity="0" stroke="#000" stroke-opacity="0"/>
  <use xlink:href="#Z" fill="#3a2c6d"/>
  <use xlink:href="#Z" fill-opacity="0" stroke="#000" stroke-opacity="0"/>
  <use xlink:href="#aa" fill="#ffcea9"/>
  <use xlink:href="#aa" fill-opacity="0" stroke="#ffcea9" stroke-width="2.64"/>
  <use xlink:href="#ab" fill="#ededed"/>
  <use xlink:href="#ab" fill-opacity="0" stroke="#000" stroke-opacity="0"/>
  <use xlink:href="#ac" fill="#ededed"/>
  <use xlink:href="#ac" fill-opacity="0" stroke="#000" stroke-opacity="0"/>
  <use xlink:href="#ad" fill="#1e222a"/>
  <use xlink:href="#ad" fill-opacity="0" stroke="#000" stroke-opacity="0"/>
  <use xlink:href="#ae" fill="#1f232c"/>
  <use xlink:href="#ae" fill-opacity="0" stroke="#000" stroke-opacity="0"/>
  <use xlink:href="#af" fill="#20242d"/>
  <use xlink:href="#af" fill-opacity="0" stroke="#000" stroke-opacity="0"/>
  <use xlink:href="#ag" fill="#22262f"/>
  <use xlink:href="#ag" fill-opacity="0" stroke="#000" stroke-opacity="0"/>
  <use xlink:href="#ah" fill="#232731"/>
  <use xlink:href="#ah" fill-opacity="0" stroke="#000" stroke-opacity="0"/>
  <use xlink:href="#ai" fill="#22262f"/>
  <use xlink:href="#ai" fill-opacity="0" stroke="#000" stroke-opacity="0"/>
  <use xlink:href="#aj" fill="#20242d"/>
  <use xlink:href="#aj" fill-opacity="0" stroke="#000" stroke-opacity="0"/>
  <use xlink:href="#ak" fill="#1f232c"/>
  <use xlink:href="#ak" fill-opacity="0" stroke="#000" stroke-opacity="0"/>
  <use xlink:href="#al" fill="#1e222a"/>
  <use xlink:href="#al" fill-opacity="0" stroke="#000" stroke-opacity="0"/>
  <use xlink:href="#am" fill="#1e222a"/>
  <use xlink:href="#am" fill-opacity="0" stroke="#000" stroke-opacity="0"/>
  <use xlink:href="#an" fill="#1f232c"/>
  <use xlink:href="#an" fill-opacity="0" stroke="#000" stroke-opacity="0"/>
  <use xlink:href="#ao" fill="#20242d"/>
  <use xlink:href="#ao" fill-opacity="0" stroke="#000" stroke-opacity="0"/>
  <use xlink:href="#ap" fill="#22262f"/>
  <use xlink:href="#ap" fill-opacity="0" stroke="#000" stroke-opacity="0"/>
  <use xlink:href="#aq" fill="#232731"/>
  <use xlink:href="#aq" fill-opacity="0" stroke="#000" stroke-opacity="0"/>
  <g>
    <use xlink:href="#ar" fill="#22262f"/>
    <use xlink:href="#ar" fill-opacity="0" stroke="#000" stroke-opacity="0"/>
  </g>
  <g>
    <use xlink:href="#as" fill="#20242d"/>
    <use xlink:href="#as" fill-opacity="0" stroke="#000" stroke-opacity="0"/>
  </g>
  <g>
    <use xlink:href="#at" fill="#1f232c"/>
    <use xlink:href="#at" fill-opacity="0" stroke="#000" stroke-opacity="0"/>
  </g>
  <g>
    <use xlink:href="#au" fill="#1e222a"/>
    <use xlink:href="#au" fill-opacity="0" stroke="#000" stroke-opacity="0"/>
  </g>
  <g>
    <use xlink:href="#av" fill="#383f4e"/>
    <use xlink:href="#av" fill-opacity="0" stroke="#000" stroke-opacity="0"/>
  </g>
  <g>
    <use xlink:href="#aw" fill="#e2e3ec"/>
    <use xlink:href="#aw" fill-opacity="0" stroke="#000" stroke-opacity="0"/>
  </g>
  <g>
    <use xlink:href="#ax" fill="#343b49"/>
    <use xlink:href="#ax" fill-opacity="0" stroke="#000" stroke-opacity="0"/>
  </g>
  <g>
    <use xlink:href="#ay" fill="#343b49"/>
    <use xlink:href="#ay" fill-opacity="0" stroke="#000" stroke-opacity="0"/>
  </g>
  <g>
    <use xlink:href="#az" fill="#252933"/>
    <use xlink:href="#az" fill-opacity="0" stroke="#000" stroke-opacity="0"/>
  </g>
  <g>
    <use xlink:href="#aA" fill="#252933"/>
    <use xlink:href="#aA" fill-opacity="0" stroke="#000" stroke-opacity="0"/>
  </g>
  <g>
    <use xlink:href="#aB" fill="#343b49"/>
    <use xlink:href="#aB" fill-opacity="0" stroke="#000" stroke-opacity="0"/>
  </g>
  <g>
    <use xlink:href="#aC" fill="#252933"/>
    <use xlink:href="#aC" fill-opacity="0" stroke="#000" stroke-opacity="0"/>
  </g>
  <g>
    <use xlink:href="#aD" fill="#e2e3ec"/>
    <use xlink:href="#aD" fill-opacity="0" stroke="#000" stroke-opacity="0"/>
  </g>
  <g>
    <use xlink:href="#aE" fill="#88898e"/>
    <use xlink:href="#aE" fill-opacity="0" stroke="#000" stroke-opacity="0"/>
  </g>
  <g>
    <use xlink:href="#aF" fill="#e2e3ec"/>
    <use xlink:href="#aF" fill-opacity="0" stroke="#000" stroke-opacity="0"/>
  </g>
  <g>
    <use xlink:href="#aG" fill="#343b49"/>
    <use xlink:href="#aG" fill-opacity="0" stroke="#000" stroke-opacity="0"/>
  </g>
  <g>
    <use xlink:href="#aH" fill="#252933"/>
    <use xlink:href="#aH" fill-opacity="0" stroke="#000" stroke-opacity="0"/>
  </g>
  <g>
    <use xlink:href="#aI" fill="#343b49"/>
    <use xlink:href="#aI" fill-opacity="0" stroke="#000" stroke-opacity="0"/>
  </g>
  <g>
    <use xlink:href="#aJ" fill="#252933"/>
    <use xlink:href="#aJ" fill-opacity="0" stroke="#000" stroke-opacity="0"/>
  </g>
  <g>
    <use xlink:href="#aK" fill="#343b49"/>
    <use xlink:href="#aK" fill-opacity="0" stroke="#000" stroke-opacity="0"/>
  </g>
  <g>
    <use xlink:href="#aL" fill="#252933"/>
    <use xlink:href="#aL" fill-opacity="0" stroke="#000" stroke-opacity="0"/>
  </g>
  <g>
    <use xlink:href="#aM" fill="#e2e3ec"/>
    <use xlink:href="#aM" fill-opacity="0" stroke="#000" stroke-opacity="0"/>
  </g>
  <g>
    <use xlink:href="#aN" fill="#88898e"/>
    <use xlink:href="#aN" fill-opacity="0" stroke="#000" stroke-opacity="0"/>
  </g>
  <g>
    <use xlink:href="#aO" fill="#e2e3ec"/>
    <use xlink:href="#aO" fill-opacity="0" stroke="#000" stroke-opacity="0"/>
  </g>
  <g>
    <use xlink:href="#aP" fill="#88898e"/>
    <use xlink:href="#aP" fill-opacity="0" stroke="#000" stroke-opacity="0"/>
  </g>
  <g>
    <use xlink:href="#aQ" fill="#1e222a"/>
    <use xlink:href="#aQ" fill-opacity="0" stroke="#000" stroke-opacity="0"/>
  </g>
  <g>
    <use xlink:href="#aR" fill="#1f232c"/>
    <use xlink:href="#aR" fill-opacity="0" stroke="#000" stroke-opacity="0"/>
  </g>
  <g>
    <use xlink:href="#aS" fill="#20242d"/>
    <use xlink:href="#aS" fill-opacity="0" stroke="#000" stroke-opacity="0"/>
  </g>
  <g>
    <use xlink:href="#aT" fill="#22262f"/>
    <use xlink:href="#aT" fill-opacity="0" stroke="#000" stroke-opacity="0"/>
  </g>
  <g>
    <use xlink:href="#aU" fill="#232731"/>
    <use xlink:href="#aU" fill-opacity="0" stroke="#000" stroke-opacity="0"/>
  </g>
  <g>
    <use xlink:href="#aV" fill="#22262f"/>
    <use xlink:href="#aV" fill-opacity="0" stroke="#000" stroke-opacity="0"/>
  </g>
  <g>
    <use xlink:href="#aW" fill="#20242d"/>
    <use xlink:href="#aW" fill-opacity="0" stroke="#000" stroke-opacity="0"/>
  </g>
  <g>
    <use xlink:href="#aX" fill="#1f232c"/>
    <use xlink:href="#aX" fill-opacity="0" stroke="#000" stroke-opacity="0"/>
  </g>
  <g>
    <use xlink:href="#aY" fill="#1e222a"/>
    <use xlink:href="#aY" fill-opacity="0" stroke="#000" stroke-opacity="0"/>
  </g>
  <g>
    <use xlink:href="#aZ" fill="#1e222a"/>
    <use xlink:href="#aZ" fill-opacity="0" stroke="#000" stroke-opacity="0"/>
  </g>
  <g>
    <use xlink:href="#ba" fill="#1f232c"/>
    <use xlink:href="#ba" fill-opacity="0" stroke="#000" stroke-opacity="0"/>
  </g>
  <g>
    <use xlink:href="#bb" fill="#20242d"/>
    <use xlink:href="#bb" fill-opacity="0" stroke="#000" stroke-opacity="0"/>
  </g>
  <g>
    <use xlink:href="#bc" fill="#22262f"/>
    <use xlink:href="#bc" fill-opacity="0" stroke="#000" stroke-opacity="0"/>
  </g>
  <g>
    <use xlink:href="#bd" fill="#232731"/>
    <use xlink:href="#bd" fill-opacity="0" stroke="#000" stroke-opacity="0"/>
  </g>
  <g>
    <use xlink:href="#be" fill="#22262f"/>
    <use xlink:href="#be" fill-opacity="0" stroke="#000" stroke-opacity="0"/>
  </g>
  <g>
    <use xlink:href="#bf" fill="#20242d"/>
    <use xlink:href="#bf" fill-opacity="0" stroke="#000" stroke-opacity="0"/>
  </g>
  <g>
    <use xlink:href="#bg" fill="#1f232c"/>
    <use xlink:href="#bg" fill-opacity="0" stroke="#000" stroke-opacity="0"/>
  </g>
  <g>
    <use xlink:href="#bh" fill="#1e222a"/>
    <use xlink:href="#bh" fill-opacity="0" stroke="#000" stroke-opacity="0"/>
  </g>
  <g>
    <use xlink:href="#bi" fill="#383f4e"/>
    <use xlink:href="#bi" fill-opacity="0" stroke="#000" stroke-opacity="0"/>
  </g>
  <g>
    <use xlink:href="#bj" fill="#1e222a"/>
    <use xlink:href="#bj" fill-opacity="0" stroke="#000" stroke-opacity="0"/>
  </g>
  <g>
    <use xlink:href="#bk" fill="#1f232c"/>
    <use xlink:href="#bk" fill-opacity="0" stroke="#000" stroke-opacity="0"/>
  </g>
  <g>
    <use xlink:href="#bl" fill="#20242d"/>
    <use xlink:href="#bl" fill-opacity="0" stroke="#000" stroke-opacity="0"/>
  </g>
  <g>
    <use xlink:href="#bm" fill="#22262f"/>
    <use xlink:href="#bm" fill-opacity="0" stroke="#000" stroke-opacity="0"/>
  </g>
  <g>
    <use xlink:href="#bn" fill="#232731"/>
    <use xlink:href="#bn" fill-opacity="0" stroke="#000" stroke-opacity="0"/>
  </g>
  <g>
    <use xlink:href="#bo" fill="#22262f"/>
    <use xlink:href="#bo" fill-opacity="0" stroke="#000" stroke-opacity="0"/>
  </g>
  <g>
    <use xlink:href="#bp" fill="#20242d"/>
    <use xlink:href="#bp" fill-opacity="0" stroke="#000" stroke-opacity="0"/>
  </g>
  <g>
    <use xlink:href="#bq" fill="#1f232c"/>
    <use xlink:href="#bq" fill-opacity="0" stroke="#000" stroke-opacity="0"/>
  </g>
  <g>
    <use xlink:href="#br" fill="#1e222a"/>
    <use xlink:href="#br" fill-opacity="0" stroke="#000" stroke-opacity="0"/>
  </g>
  <g>
    <use xlink:href="#bs" fill="#1e222a"/>
    <use xlink:href="#bs" fill-opacity="0" stroke="#000" stroke-opacity="0"/>
  </g>
  <g>
    <use xlink:href="#bt" fill="#1f232c"/>
    <use xlink:href="#bt" fill-opacity="0" stroke="#000" stroke-opacity="0"/>
  </g>
  <g>
    <use xlink:href="#bu" fill="#20242d"/>
    <use xlink:href="#bu" fill-opacity="0" stroke="#000" stroke-opacity="0"/>
  </g>
  <g>
    <use xlink:href="#bv" fill="#22262f"/>
    <use xlink:href="#bv" fill-opacity="0" stroke="#000" stroke-opacity="0"/>
  </g>
  <g>
    <use xlink:href="#bw" fill="#232731"/>
    <use xlink:href="#bw" fill-opacity="0" stroke="#000" stroke-opacity="0"/>
  </g>
  <g>
    <use xlink:href="#bx" fill="#22262f"/>
    <use xlink:href="#bx" fill-opacity="0" stroke="#000" stroke-opacity="0"/>
  </g>
  <g>
    <use xlink:href="#by" fill="#20242d"/>
    <use xlink:href="#by" fill-opacity="0" stroke="#000" stroke-opacity="0"/>
  </g>
  <g>
    <use xlink:href="#bz" fill="#1f232c"/>
    <use xlink:href="#bz" fill-opacity="0" stroke="#000" stroke-opacity="0"/>
  </g>
  <g>
    <use xlink:href="#bA" fill="#1e222a"/>
    <use xlink:href="#bA" fill-opacity="0" stroke="#000" stroke-opacity="0"/>
  </g>
  <g>
    <use xlink:href="#bB" fill="#383f4e"/>
    <use xlink:href="#bB" fill-opacity="0" stroke="#000" stroke-opacity="0"/>
  </g>
  <g>
    <use xlink:href="#bC" fill="#161714"/>
    <use xlink:href="#bC" fill-opacity="0" stroke="#000"/>
  </g>
  <g>
    <use xlink:href="#bD" fill="#0b0e05"/>
    <use xlink:href="#bD" fill-opacity="0" stroke="#000"/>
  </g>
  <g>
    <use xlink:href="#bE" fill="#c01a1a"/>
    <use xlink:href="#bE" fill-opacity="0" stroke="#6c1d00"/>
  </g>
  <g>
    <use xlink:href="#bF" fill="#c01a1a"/>
    <use xlink:href="#bF" fill-opacity="0" stroke="#6c1d00"/>
  </g>
  <g>
    <use xlink:href="#bG" fill="#b40404"/>
    <use xlink:href="#bG" fill-opacity="0" stroke="#63220b"/>
  </g>
  <g>
    <use xlink:href="#bH" fill="#b40404"/>
    <use xlink:href="#bH" fill-opacity="0" stroke="#63220b"/>
  </g>
</svg>