<svg xmlns="http://www.w3.org/2000/svg" width="391.731" height="111.069" viewBox="0 0 103.646 29.387">
  <text style="line-height:1.25" x="56.11" y="70.843" font-weight="400" font-size="10.583" font-family="sans-serif" stroke-width=".265" transform="translate(-56.462 -48.748)">
    <tspan x="56.11" y="70.843">W</tspan>
  </text>
  <text style="line-height:1.25" x="75.832" y="71.372" font-weight="400" font-size="10.583" font-family="sans-serif" stroke-width=".265" transform="translate(-56.462 -48.748)">
    <tspan x="75.832" y="71.372">rk</tspan>
  </text>
  <text style="line-height:1.25" x="93.432" y="71.911" font-weight="400" font-size="10.583" font-family="sans-serif" stroke-width=".265" transform="translate(-56.462 -48.748)">
    <tspan x="93.432" y="71.911">in</tspan>
  </text>
  <text style="line-height:1.25" x="109.262" y="71.911" font-weight="400" font-size="10.583" font-family="sans-serif" stroke-width=".265" transform="translate(-56.462 -48.748)">
    <tspan x="109.262" y="71.911">Pr</tspan>
  </text>
  <text style="line-height:1.25" x="129.972" y="70.992" font-weight="400" font-size="10.583" font-family="sans-serif" stroke-width=".265" transform="translate(-56.462 -48.748)">
    <tspan x="129.972" y="70.992">gres</tspan>
  </text>
  <text style="line-height:1.25" x="169.867" y="-13.392" transform="rotate(30.79 60.29 -126.902)" font-weight="400" font-size="10.583" font-family="sans-serif" stroke-width=".265">
    <tspan x="169.867" y="-13.392">s</tspan>
  </text>
  <g class="left-cog">
   <path d="M14.33 17.311c.743 0 1.347.604 1.347 1.347 0 .742-.604 1.346-1.346 1.346a1.348 1.348 0 01-1.346-1.346c0-.743.603-1.347 1.346-1.347zm1.018 1.347a1.018 1.018 0 00-2.034 0 1.018 1.018 0 002.034 0z" fill="#de6051"/>
   <path d="M17.253 16.279l.6 1.037-.46.266a.292.292 0 00-.138.326 3.025 3.025 0 010 1.5.292.292 0 00.137.325l.46.266-.599 1.038-.46-.266a.293.293 0 00-.352.044 3.022 3.022 0 01-1.297.75.292.292 0 00-.214.282v.532h-1.198v-.532a.293.293 0 00-.214-.282 3.025 3.025 0 01-1.298-.75.293.293 0 00-.35-.044l-.462.266-.6-1.038.461-.266a.293.293 0 00.137-.326 3.026 3.026 0 010-1.499.293.293 0 00-.137-.326l-.46-.266.599-1.037.461.266a.293.293 0 00.351-.044 3.025 3.025 0 011.298-.75.293.293 0 00.214-.282v-.532h1.198v.532c0 .131.087.246.214.281.486.136.934.395 1.297.75.094.092.238.11.351.045zm-.99 2.379a1.934 1.934 0 00-1.932-1.932 1.934 1.934 0 00-1.932 1.932c0 1.065.867 1.931 1.932 1.931a1.934 1.934 0 001.931-1.931z" fill="#0b77a5"/>
   <path d="M18.506 17.277a.293.293 0 01-.107.4l-.528.305a3.611 3.611 0 010 1.352l.528.305a.291.291 0 01.107.4l-.892 1.544a.293.293 0 01-.4.107l-.528-.305a3.614 3.614 0 01-1.17.677v.61a.293.293 0 01-.293.292h-1.784a.293.293 0 01-.293-.293v-.61a3.616 3.616 0 01-1.17-.676l-.529.305a.292.292 0 01-.4-.107l-.892-1.545a.293.293 0 01.107-.4l.529-.304a3.636 3.636 0 010-1.352l-.529-.305a.292.292 0 01-.107-.4l.892-1.545c.081-.14.26-.188.4-.107l.529.306a3.616 3.616 0 011.17-.677v-.61c0-.161.131-.292.293-.292h1.784c.161 0 .292.13.292.292v.61c.428.149.826.38 1.17.677l.53-.306a.293.293 0 01.4.107zm-.653.04l-.6-1.038-.46.266a.293.293 0 01-.352-.044 3.022 3.022 0 00-1.297-.75.292.292 0 01-.214-.282v-.532h-1.198v.532a.293.293 0 01-.214.281 3.025 3.025 0 00-1.298.75.293.293 0 01-.35.045l-.462-.266-.6 1.037.461.266c.114.066.17.199.137.326a3.026 3.026 0 000 1.5.293.293 0 01-.137.325l-.46.266.599 1.038.461-.266a.293.293 0 01.351.044c.363.355.812.614 1.298.75.126.035.214.15.214.282v.532h1.198v-.532c0-.131.087-.247.214-.282a3.022 3.022 0 001.297-.75.293.293 0 01.351-.044l.461.266.6-1.038-.46-.266a.292.292 0 01-.138-.326 3.025 3.025 0 000-1.499.292.292 0 01.137-.326z"/>
   <path d="M14.33 16.726c1.066 0 1.932.867 1.932 1.932a1.934 1.934 0 01-1.931 1.931 1.934 1.934 0 01-1.932-1.931c0-1.065.867-1.932 1.932-1.932zm1.347 1.932c0-.743-.604-1.347-1.346-1.347a1.348 1.348 0 000 2.693c.742 0 1.346-.604 1.346-1.346z"/>
   <path d="M14.33 17.64a1.018 1.018 0 11-1.017 1.017c0-.56.457-1.016 1.018-1.016zm.432 1.018a.432.432 0 10-.864 0 .432.432 0 00.864 0z"/>
  </g>
  <g class="right-cog" >
    <path d="M68.345 19.077a.633.633 0 11-.002 1.265.633.633 0 01.002-1.265z" fill="#afb6bb"/>
    <path d="M68.345 18.175a1.535 1.535 0 010 3.069 1.535 1.535 0 010-3.07zm.631 1.534a.633.633 0 10-1.265.001.633.633 0 001.265 0z" fill="#e7eced"/>
    <path d="M72.316 18.897v1.624h-.828a3.156 3.156 0 01-.347.836l.587.585-1.15 1.15-.585-.587c-.258.154-.538.271-.836.347v.829h-1.625v-.829a3.156 3.156 0 01-.836-.347l-.584.587-1.15-1.15.586-.585a3.156 3.156 0 01-.346-.836h-.829v-1.624h.829c.075-.298.193-.578.346-.836l-.586-.585 1.15-1.15.584.587c.259-.154.538-.271.836-.347v-.828h1.625v.828c.298.076.578.193.836.347l.585-.587 1.15 1.15-.587.585c.153.258.27.538.347.836zm-2.437.812a1.535 1.535 0 00-3.069 0 1.535 1.535 0 003.07 0z" fill="#7e8488"/>
    <path d="M66.81 19.71c0-.848.688-1.535 1.535-1.535v-2.437h-.813v.828a3.156 3.156 0 00-.836.347l-.584-.587-1.15 1.15.586.585c-.153.258-.27.538-.346.836h-.829v1.624h.829c.075.298.193.578.346.836l-.586.585 1.15 1.15.584-.587c.259.154.538.271.836.347v.829h.813v-2.437a1.535 1.535 0 01-1.535-1.535z" fill="#656b6e"/>
    <path d="M69.292 23.816h-1.895v-.86a3.296 3.296 0 01-.678-.282l-.607.61-1.342-1.342.61-.607a3.297 3.297 0 01-.282-.678h-.86V18.76h.86c.068-.235.162-.462.281-.677l-.61-.608 1.343-1.342.607.61c.215-.119.442-.213.678-.281v-.86h1.895v.86c.236.068.463.162.678.28l.608-.609 1.341 1.342-.61.608c.12.215.214.442.282.677h.86v1.896h-.86a3.296 3.296 0 01-.281.678l.61.607-1.342 1.342-.608-.61a3.297 3.297 0 01-.678.282v.86zm-1.624-.27h1.354v-.8l.102-.025c.28-.072.55-.183.8-.332l.09-.054.564.566.958-.959-.565-.563.054-.09c.148-.251.26-.52.331-.8l.026-.103h.799v-1.354h-.799l-.026-.102a3.027 3.027 0 00-.331-.8l-.054-.09.565-.564-.958-.958-.564.565-.09-.054c-.25-.149-.52-.26-.8-.332l-.102-.026v-.798h-1.354v.798l-.102.026c-.281.072-.55.183-.8.332l-.091.054-.564-.565-.958.958.566.563-.054.091c-.15.25-.26.52-.332.8l-.026.102h-.799v1.354h.799l.026.102c.071.28.183.55.332.8l.054.09-.566.564.958.959.564-.566.09.054c.25.149.52.26.8.332l.103.026v.798z"/>
    <path d="M68.345 21.379c-.921 0-1.67-.75-1.67-1.67 0-.92.749-1.67 1.67-1.67.92 0 1.67.75 1.67 1.67 0 .92-.75 1.67-1.67 1.67zm0-3.069a1.4 1.4 0 00-1.4 1.4 1.4 1.4 0 001.4 1.398 1.4 1.4 0 001.399-1.399 1.4 1.4 0 00-1.4-1.399z"/>
    <path d="M68.345 20.476a.768.768 0 11.001-1.536.768.768 0 01-.001 1.536zm0-1.263a.497.497 0 100 .994.497.497 0 000-.994z"/>
    <g fill="#fff">
      <path d="M64.734 19.574h.361v.27h-.36zM71.594 19.574h.361v.27h-.361zM68.164 16.144h.361v.27h-.36zM68.164 23.004h.361v.27h-.36zM66.043 19.71h-.27a2.575 2.575 0 012.572-2.573v.27a2.304 2.304 0 00-2.302 2.302zM68.345 22.282v-.271a2.304 2.304 0 002.301-2.302h.271a2.575 2.575 0 01-2.572 2.573z"/>
    </g>
  </g>
  <path d="M85.796 3.37l2.432 3.837v4.637h1.655V9.876h1.715L95.157 0l2.029.634-.102.29v4.379c.505.17.912.669.912 1.27 0 .701-.576 1.303-1.252 1.303-.675 0-1.251-.602-1.251-1.303h.678c0 .368.27.67.576.67.305 0 .577-.302.577-.67 0-.368-.237-.668-.577-.668h-.339V2.87l-2.57 7.392v1.578h2.097v3.84H82.314V3.37z"/>
  <path d="M95.563.8l-3.245 9.076h.98l3.04-8.807zM90.526 10.51v1.334h2.637V10.51z" fill="#a7a7a7"/>
  <path d="M87.585 7.374l-2.163-3.37h-2.433v7.674h4.596z" fill="#de6051"/>
  <path d="M86.538 6.573v1.133h-3.04V4.538h1.69z"/>
  <path d="M84.138 5.172V7.04h1.725v-.266l-1.046-1.6h-.679z" fill="#fff"/>
  <path d="M97.171 7.222s1.63 4.742 1.88 7.215c.161 1.603.415 2.363-.257 4.825-.672 2.463 1.23 3.439 1.23 3.439" fill="none" stroke="#000" stroke-width=".265"/>
  <path d="M82.957 15.013H95.26v-2.5H82.957v2.5" fill="#0b77a5"/>
</svg>
